<?xml version="1.0" encoding="utf-8"?>
<!-- Generator: Adobe Illustrator 16.0.0, SVG Export Plug-In . SVG Version: 6.00 Build 0)  -->
<!DOCTYPE svg PUBLIC "-//W3C//DTD SVG 1.1//EN" "http://www.w3.org/Graphics/SVG/1.1/DTD/svg11.dtd">
<svg version="1.1" id="Layer_1" xmlns="http://www.w3.org/2000/svg" xmlns:xlink="http://www.w3.org/1999/xlink" x="0px" y="0px"
	 width="210px" height="60px" viewBox="0 0 210 60" enable-background="new 0 0 210 60" xml:space="preserve">
<g>
	<path fill="#FFFFFF" d="M139.612,5c17.702,0,35.401,0,53.104,0c-0.001,6.517-0.003,13.035-0.003,19.552
		c0,10.15,0.002,20.298,0.003,30.448c-17.702,0-35.401,0-53.104,0c0.01-0.214,0.026-0.428,0.026-0.643c0-16.295,0-32.591,0-48.887
		C139.639,5.313,139.622,5.157,139.612,5z M182.194,38.401c-0.186,0.095-0.289,0.136-0.382,0.192
		c-2.037,1.277-4.185,2.32-6.48,3.048c-3.903,1.238-7.841,1.506-11.818,0.386c-2.22-0.627-4.221-1.686-5.827-3.349
		c-3.161-3.274-4.062-7.229-3.072-11.575c0.972-4.273,3.775-7.073,7.752-8.692c3.86-1.571,7.823-1.41,11.789-0.411
		c2.295,0.578,4.438,1.543,6.516,2.663c0.354,0.191,0.714,0.374,1.115,0.583c0-2.091-0.015-4.1,0.013-6.109
		c0.006-0.431-0.123-0.638-0.529-0.771c-1.657-0.542-3.291-1.17-4.965-1.661c-3.476-1.017-7.015-1.412-10.634-0.999
		c-2.791,0.317-5.45,1.053-7.951,2.339c-2.875,1.48-5.252,3.531-7.051,6.223c-1.494,2.238-2.395,4.705-2.814,7.369
		c-0.532,3.394-0.07,6.637,1.369,9.735c1.485,3.195,3.706,5.764,6.672,7.695c2.454,1.601,5.14,2.562,8.009,3.041
		c2.551,0.424,5.113,0.42,7.683,0.184c3.582-0.33,6.966-1.321,10.184-2.922c0.344-0.169,0.435-0.36,0.431-0.72
		c-0.017-1.823-0.007-3.649-0.007-5.475C182.194,38.95,182.194,38.723,182.194,38.401z"/>
	<path fill-rule="evenodd" clip-rule="evenodd" fill="#FFFFFF" d="M70.388,55c-17.702,0-35.403,0-53.104,0c0-16.667,0-33.333,0-50
		c17.702,0,35.402,0,53.104,0c-0.001,7.148-0.004,14.298-0.004,21.447C70.384,35.965,70.387,45.481,70.388,55z M50.003,28.779
		c0.069-0.039,0.125-0.072,0.183-0.103c2.373-1.297,3.901-3.188,4.226-5.95c0.423-3.614-0.841-6.483-3.814-8.557
		c-2.228-1.554-4.776-2.133-7.452-2.155c-3.735-0.031-7.471-0.007-11.207-0.007c-0.226,0-0.452,0-0.723,0c0,0.199,0,0.341,0,0.481
		c0.001,11.667,0.004,23.333-0.003,34.998c0,0.376,0.068,0.517,0.491,0.516c4.194-0.019,8.39-0.022,12.585-0.007
		c2.154,0.007,4.264-0.246,6.318-0.913c2.224-0.723,4.141-1.896,5.494-3.856c1.55-2.247,2.064-4.711,1.399-7.369
		c-0.731-2.912-2.605-4.885-5.262-6.162C51.522,29.353,50.768,29.091,50.003,28.779z"/>
	<path fill-rule="evenodd" clip-rule="evenodd" fill="#FFFFFF" d="M78.491,5c17.702,0,35.403,0,53.104,0
		c-0.01,0.186-0.025,0.372-0.025,0.557c0,16.298,0,32.596-0.003,48.894c0,0.183-0.038,0.366-0.058,0.549
		c-17.672,0-35.345,0-53.018,0c-0.009-0.244-0.026-0.487-0.026-0.73c0-16.237,0-32.475,0-48.712C78.465,5.372,78.482,5.185,78.491,5
		z M92.375,12.008c0,0.207,0,0.36,0,0.513c0.001,11.651,0.002,23.301-0.009,34.953c0,0.42,0.116,0.528,0.528,0.525
		c3.964-0.015,7.93,0.011,11.895-0.019c1.374-0.011,2.757-0.065,4.12-0.238c2.153-0.273,4.193-0.934,6.011-2.171
		c3.371-2.294,4.839-6.579,3.578-10.349c-0.839-2.517-2.548-4.244-4.856-5.421c-0.78-0.396-1.616-0.681-2.452-1.027
		c0.095-0.054,0.179-0.104,0.265-0.151c0.92-0.515,1.76-1.133,2.453-1.937c1.26-1.463,1.727-3.201,1.76-5.093
		c0.06-3.23-1.361-5.707-3.969-7.488c-2.18-1.49-4.68-2.073-7.298-2.091c-3.836-0.027-7.671-0.007-11.507-0.007
		C92.738,12.008,92.584,12.008,92.375,12.008z"/>
	<path fill-rule="evenodd" clip-rule="evenodd" fill="#FFFFFF" d="M37.662,32.592c0.129-0.01,0.255-0.029,0.38-0.029
		c2.198,0.008,4.396-0.025,6.592,0.04c1.633,0.049,3.222,0.377,4.623,1.303c2.58,1.7,2.486,5.669-0.163,7.274
		c-1.209,0.733-2.54,1.08-3.921,1.125c-2.382,0.081-4.767,0.058-7.151,0.079c-0.237,0.002-0.41-0.016-0.409-0.338
		c0.013-3.116,0.013-6.234,0.017-9.351C37.63,32.681,37.638,32.669,37.662,32.592z"/>
	<path fill-rule="evenodd" clip-rule="evenodd" fill="#FFFFFF" d="M37.646,26.875c0-3.07,0-6.135,0-9.222
		c0.114-0.014,0.21-0.036,0.308-0.035c1.751,0.019,3.504-0.006,5.252,0.078c1.149,0.055,2.261,0.348,3.221,1.056
		c0.88,0.649,1.317,1.544,1.407,2.599c0.141,1.646-0.166,3.158-1.573,4.229c-0.985,0.751-2.148,1.113-3.354,1.197
		c-1.686,0.117-3.382,0.105-5.074,0.146C37.78,26.924,37.726,26.896,37.646,26.875z"/>
	<path fill-rule="evenodd" clip-rule="evenodd" fill="#FFFFFF" d="M98.855,42.328c0-3.252,0-6.478,0-9.766
		c0.232,0,0.442-0.002,0.652,0c2.112,0.009,4.226-0.031,6.336,0.04c1.749,0.06,3.458,0.388,4.893,1.503
		c2.35,1.822,2.09,5.571-0.468,7.095c-1.202,0.717-2.523,1.062-3.893,1.104c-2.454,0.079-4.911,0.056-7.367,0.072
		C98.969,42.377,98.929,42.352,98.855,42.328z"/>
	<path fill-rule="evenodd" clip-rule="evenodd" fill="#FFFFFF" d="M98.814,26.923c0-3.126,0-6.181,0-9.312
		c0.265,0,0.518-0.001,0.769,0.001c1.477,0.016,2.956,0.021,4.433,0.051c1.013,0.021,1.996,0.23,2.912,0.667
		c1.533,0.73,2.297,2.256,2.098,4.116c-0.247,2.329-1.469,3.615-3.995,4.176C102.991,27.073,100.921,26.895,98.814,26.923z"/>
</g>
</svg>
