<?xml version="1.0" encoding="utf-8"?>
<!-- Generator: Adobe Illustrator 16.0.0, SVG Export Plug-In . SVG Version: 6.00 Build 0)  -->
<!DOCTYPE svg PUBLIC "-//W3C//DTD SVG 1.1//EN" "http://www.w3.org/Graphics/SVG/1.1/DTD/svg11.dtd">
<svg version="1.1" id="Layer_1" xmlns="http://www.w3.org/2000/svg" xmlns:xlink="http://www.w3.org/1999/xlink" x="0px" y="0px"
	 width="210px" height="60px" viewBox="0 0 210 60" enable-background="new 0 0 210 60" xml:space="preserve">
<g>
	<g id="TC9Aiw.tif">
		<g>
			<path fill-rule="evenodd" clip-rule="evenodd" fill="#FFFFFF" d="M118.307,38.755c0-0.235,0-0.424,0-0.616
				c0.254-0.08,4.673-0.103,5.174-0.021c0,0.194,0,0.392,0,0.637c-0.165,0-0.304-0.006-0.442,0.001
				c-0.466,0.023-0.738,0.271-0.802,0.733c-0.016,0.116-0.011,0.233-0.011,0.35c0,4.106,0,8.214,0,12.321
				c-0.002,0.641,0.096,1.261,0.36,1.847c0.49,1.087,1.536,1.394,2.552,1.045c0.504-0.175,0.836-0.545,1.057-1.021
				c0.289-0.623,0.359-1.29,0.359-1.965c0.004-2.247,0.002-4.494,0.002-6.741c0-1.718,0.002-3.437-0.002-5.154
				c-0.002-0.23-0.017-0.466-0.062-0.692c-0.103-0.51-0.369-0.717-0.888-0.726c-0.127-0.003-0.252-0.012-0.376-0.019
				c-0.02-0.06-0.041-0.094-0.042-0.13c-0.003-0.154-0.001-0.31-0.001-0.495c0.105-0.013,0.203-0.033,0.3-0.033
				c2.803-0.002,5.605-0.002,8.408,0.002c0.771,0,1.514,0.154,2.216,0.475c1.032,0.471,1.726,1.25,2.045,2.343
				c0.284,0.978,0.287,1.966,0.004,2.942c-0.379,1.3-1.274,2.122-2.506,2.608c-0.334,0.133-0.683,0.227-1.076,0.355
				c0.177,0.046,0.313,0.082,0.449,0.118c1.316,0.344,2.356,1.421,2.404,2.957c0.044,1.367,0.143,2.733,0.223,4.099
				c0.009,0.14,0.044,0.28,0.084,0.416c0.048,0.166,0.177,0.254,0.346,0.265c0.181,0.011,0.335-0.057,0.413-0.228
				c0.047-0.104,0.084-0.22,0.093-0.333c0.025-0.359,0.038-0.721,0.05-1.082c0.006-0.15,0.001-0.303,0.001-0.478
				c0.259,0,0.472,0,0.724,0c0.021,0.821,0.094,1.634-0.252,2.402c-0.291,0.646-0.809,0.989-1.513,1.038
				c-0.229,0.016-0.469,0.019-0.694-0.022c-0.584-0.105-1.004-0.444-1.27-0.976c-0.301-0.602-0.406-1.252-0.447-1.91
				c-0.07-1.186-0.105-2.373-0.173-3.559c-0.022-0.385-0.071-0.773-0.162-1.146c-0.17-0.696-0.61-1.128-1.348-1.188
				c-0.278-0.021-0.562-0.004-0.867-0.004c-0.01,0.132-0.024,0.243-0.024,0.356c-0.002,2.208-0.001,4.416-0.001,6.625
				c0,0.065-0.002,0.13,0.003,0.194c0.034,0.533,0.288,0.801,0.819,0.841c0.215,0.017,0.433,0.002,0.67,0.002
				c0,0.236,0,0.423,0,0.633c-1.811,0-3.599,0-5.408,0c0-0.205,0-0.392,0-0.63c0.174,0,0.337,0.008,0.501-0.001
				c0.649-0.034,0.932-0.316,0.965-0.963c0.006-0.117,0.004-0.233,0.004-0.35c0-4.61,0-9.222-0.002-13.832
				c0-0.168,0-0.336-0.017-0.503c-0.05-0.504-0.33-0.771-0.831-0.787c-0.336-0.011-0.672-0.007-1.008-0.002
				c-0.431,0.006-0.686,0.166-0.803,0.584c-0.082,0.293-0.115,0.609-0.116,0.915c-0.01,2.234-0.005,4.469-0.005,6.703
				c0,1.666,0.001,3.332-0.001,4.998c-0.001,0.648-0.059,1.289-0.253,1.912c-0.354,1.138-1.084,1.855-2.28,2.05
				c-1.029,0.168-2.036,0.076-2.985-0.376c-1.309-0.622-1.948-1.714-2.104-3.12c-0.025-0.23-0.024-0.464-0.024-0.696
				c-0.001-3.901-0.001-7.802-0.003-11.703c0-0.192-0.006-0.388-0.038-0.578c-0.08-0.453-0.337-0.67-0.795-0.688
				C118.709,38.748,118.519,38.755,118.307,38.755z M132.632,46.341c0.446-0.023,0.853,0,1.239-0.075
				c0.827-0.158,1.331-0.721,1.573-1.493c0.156-0.5,0.25-1.026,0.304-1.549c0.096-0.915,0.065-1.831-0.222-2.718
				c-0.414-1.289-1.556-1.918-2.895-1.604C132.632,41.358,132.632,43.816,132.632,46.341z"/>
			<path fill-rule="evenodd" clip-rule="evenodd" fill="#FFFFFF" d="M151.866,51.572c-0.161,0.896-0.314,1.746-0.465,2.598
				c-0.021,0.126-0.028,0.257-0.017,0.385c0.027,0.34,0.187,0.517,0.521,0.577c0.214,0.039,0.434,0.056,0.675,0.086
				c0,0.188,0,0.376,0,0.564c-0.267,0.08-3.179,0.105-3.758,0.028c0-0.181,0-0.368,0-0.585c0.178-0.023,0.364-0.055,0.553-0.07
				c0.469-0.038,0.766-0.299,0.904-0.729c0.104-0.329,0.173-0.673,0.238-1.015c0.562-2.9,1.12-5.801,1.68-8.7
				c0.422-2.192,0.846-4.384,1.269-6.574c0.014-0.073,0.038-0.146,0.067-0.261c0.324,0,0.645-0.001,0.964,0.002
				c0.178,0.003,0.186,0.141,0.212,0.27c0.149,0.759,0.304,1.518,0.455,2.276c0.635,3.188,1.27,6.377,1.903,9.565
				c0.246,1.239,0.486,2.48,0.743,3.719c0.062,0.3,0.154,0.602,0.283,0.879c0.191,0.408,0.534,0.616,0.995,0.605
				c0.04-0.001,0.079,0,0.117,0c0.78-0.007,1.082-0.303,1.084-1.078c0.003-1.757,0.001-3.513,0.001-5.27
				c0-2.972,0-5.942-0.001-8.913c0-0.154,0.003-0.312-0.022-0.463c-0.078-0.465-0.347-0.695-0.821-0.714
				c-0.19-0.007-0.383-0.001-0.6-0.001c0-0.236,0-0.435,0-0.656c1.753,0,3.501,0,5.27,0c0,0.21,0,0.399,0,0.636
				c-0.159,0.007-0.309,0.015-0.457,0.019c-0.606,0.014-0.866,0.253-0.923,0.859c-0.012,0.128-0.011,0.258-0.011,0.387
				c-0.001,4.856-0.001,9.714-0.001,14.57c0,0.152,0,0.305,0,0.499c0.658-0.013,1.276,0.065,1.887-0.052
				c0.697-0.134,1.209-0.55,1.584-1.146c0.449-0.716,0.647-1.515,0.756-2.339c0.06-0.446,0.072-0.899,0.105-1.35
				c0.01-0.139,0.021-0.278,0.034-0.435c0.194,0,0.356,0,0.517,0c0.083,0.29,0.113,5.352,0.041,6.034
				c-0.27,0.08-12.973,0.108-13.565,0.026c0-0.181,0-0.366,0-0.585c0.207-0.026,0.421-0.05,0.634-0.082
				c0.491-0.074,0.73-0.344,0.656-0.823c-0.137-0.892-0.31-1.778-0.47-2.668c-0.004-0.022-0.027-0.042-0.053-0.078
				C153.874,51.572,152.885,51.572,151.866,51.572z M153.4,42.979c-0.028,0.005-0.054,0.009-0.082,0.013
				c-0.435,2.562-0.869,5.125-1.308,7.704c0.926,0,1.8,0,2.701,0C154.271,48.107,153.836,45.543,153.4,42.979z"/>
			<path fill-rule="evenodd" clip-rule="evenodd" fill="#FFFFFF" d="M63.382,46.792c0.319,0.1,0.625,0.164,0.904,0.288
				c1.16,0.511,1.85,1.379,1.93,2.667c0.083,1.313,0.139,2.63,0.21,3.944c0.011,0.191,0.034,0.386,0.075,0.574
				c0.057,0.268,0.193,0.388,0.407,0.393c0.228,0.006,0.395-0.123,0.448-0.396c0.048-0.252,0.069-0.512,0.081-0.769
				c0.013-0.307,0.003-0.615,0.003-0.951c0.243,0,0.457,0,0.674,0c0.013,0.014,0.044,0.03,0.045,0.05
				c0.049,0.658,0.062,1.316-0.109,1.96c-0.228,0.857-0.817,1.368-1.626,1.427c-1.036,0.074-1.68-0.281-2.061-1.153
				c-0.3-0.687-0.365-1.422-0.404-2.156c-0.062-1.173-0.101-2.348-0.168-3.521c-0.017-0.293-0.079-0.59-0.164-0.871
				c-0.187-0.622-0.585-1.029-1.26-1.086c-0.303-0.025-0.608-0.004-0.939-0.004c-0.006,0.141-0.019,0.267-0.019,0.392
				c0,2.157-0.002,4.313,0,6.47c0,0.91,0.229,1.134,1.148,1.146c0.111,0.002,0.223,0.014,0.354,0.022c0,0.199,0,0.377,0,0.611
				c-0.888,0.044-1.786,0.012-2.681,0.019c-0.901,0.005-1.8,0.001-2.725,0.001c0-0.231,0-0.418,0-0.656
				c0.178,0,0.342,0.009,0.505-0.001c0.641-0.037,0.932-0.336,0.959-0.975c0.003-0.091,0.001-0.182,0.001-0.271
				c0-4.661,0-9.323-0.001-13.984c0-0.179-0.005-0.362-0.042-0.538c-0.086-0.424-0.349-0.643-0.781-0.664
				c-0.203-0.011-0.408-0.003-0.638-0.003c0-0.243,0-0.441,0-0.66c0.13-0.008,0.243-0.019,0.356-0.019
				c1.562-0.002,3.125,0,4.687-0.003c0.65-0.001,1.284,0.095,1.901,0.303c1.547,0.522,2.423,1.61,2.653,3.211
				c0.099,0.691,0.08,1.391-0.096,2.076c-0.375,1.452-1.346,2.339-2.709,2.846C64.012,46.617,63.712,46.691,63.382,46.792z
				 M61.424,46.313c0.333,0,0.628,0.014,0.921-0.003c0.705-0.039,1.275-0.346,1.623-0.963c0.193-0.343,0.341-0.725,0.438-1.107
				c0.221-0.87,0.21-1.764,0.141-2.653c-0.043-0.567-0.165-1.122-0.448-1.628c-0.497-0.887-1.676-1.35-2.675-1.044
				C61.424,41.359,61.424,43.807,61.424,46.313z"/>
			<path fill-rule="evenodd" clip-rule="evenodd" fill="#FFFFFF" d="M108.98,46.844c0.018-1.679,0.174-3.408,0.7-5.086
				c0.276-0.881,0.649-1.713,1.231-2.438c0.514-0.641,1.143-1.121,1.958-1.306c1.093-0.245,2.07,0.011,2.922,0.735
				c0.706,0.599,1.165,1.374,1.521,2.212c0.483,1.137,0.74,2.331,0.885,3.553c0.164,1.376,0.192,2.754,0.072,4.133
				c-0.146,1.692-0.452,3.349-1.234,4.882c-0.276,0.544-0.616,1.043-1.055,1.471c-1.445,1.405-3.54,1.312-4.861-0.212
				c-0.752-0.868-1.193-1.893-1.509-2.979C109.145,50.211,108.993,48.57,108.98,46.844z M111.762,46.914c-0.006,0-0.013,0-0.018,0
				c0,1.42-0.01,2.842,0.004,4.263c0.005,0.592,0.043,1.187,0.1,1.776c0.05,0.528,0.187,1.038,0.449,1.51
				c0.536,0.961,2.055,0.95,2.582,0.092c0.198-0.324,0.35-0.692,0.452-1.06c0.196-0.698,0.231-1.424,0.232-2.148
				c0.004-2.751,0.006-5.502-0.002-8.253c-0.002-0.619-0.028-1.239-0.072-1.856c-0.038-0.515-0.144-1.021-0.354-1.5
				c-0.207-0.473-0.524-0.862-1.049-0.944c-0.887-0.141-1.572-0.036-1.997,1.068c-0.041,0.107-0.082,0.219-0.099,0.333
				c-0.081,0.573-0.209,1.146-0.219,1.723C111.743,43.582,111.762,45.248,111.762,46.914z"/>
			<path fill-rule="evenodd" clip-rule="evenodd" fill="#FFFFFF" d="M68.365,55.816c0-0.208,0-0.395,0-0.598
				c0.237-0.021,0.452-0.037,0.667-0.059c0.405-0.042,0.62-0.289,0.694-0.67c0.029-0.15,0.038-0.308,0.038-0.462
				c0.002-4.714,0.002-9.429,0.001-14.143c0-0.09,0.001-0.182-0.008-0.271c-0.057-0.595-0.332-0.85-0.925-0.86
				c-0.166-0.003-0.331-0.001-0.512-0.001c0-0.239,0-0.428,0-0.618c0.291-0.08,8.068-0.116,9.047-0.042
				c0.082,0.267,0.102,5.604,0.018,6.072c-0.169,0-0.343,0-0.562,0c0-0.168,0.002-0.32,0-0.472
				c-0.016-0.907-0.114-1.803-0.393-2.671c-0.155-0.483-0.377-0.931-0.713-1.318c-0.437-0.504-0.993-0.793-1.647-0.839
				c-0.589-0.04-1.184-0.008-1.773-0.008c-0.078,0.289-0.106,6.627-0.037,7.31c0.667,0.152,1.195-0.072,1.529-0.658
				c0.235-0.411,0.342-0.863,0.393-1.327c0.05-0.447,0.074-0.899,0.113-1.386c0.171,0,0.353,0,0.557,0c0,2.549,0,5.088,0,7.653
				c-0.175,0-0.349,0-0.572,0c-0.004-0.121-0.002-0.259-0.019-0.393c-0.071-0.562-0.145-1.123-0.223-1.685
				c-0.012-0.088-0.049-0.173-0.081-0.258c-0.253-0.674-0.677-1.195-1.658-1.049c-0.081,0.264-0.11,7.327-0.029,7.994
				c0.724-0.012,1.458,0.11,2.173-0.106c0.645-0.195,1.122-0.62,1.481-1.184c0.489-0.769,0.713-1.626,0.816-2.519
				c0.057-0.472,0.076-0.948,0.115-1.453c0.168,0,0.341,0,0.518,0c0.077,0.274,0.108,5.153,0.038,5.978
				C77.14,55.866,69.217,55.906,68.365,55.816z"/>
			<path fill-rule="evenodd" clip-rule="evenodd" fill="#FFFFFF" d="M78.057,38.755c0-0.243,0-0.434,0-0.651c3.017,0,6.03,0,9.073,0
				c0,2.013,0,4.021,0,6.055c-0.181,0-0.354,0-0.557,0c-0.021-0.384-0.041-0.754-0.064-1.125c-0.044-0.711-0.14-1.415-0.391-2.084
				c-0.136-0.358-0.31-0.712-0.52-1.031c-0.363-0.551-0.889-0.888-1.544-1.009c-0.691-0.128-1.383-0.038-2.098-0.062
				c0,2.463,0,4.886,0,7.309c0.573,0.174,1.109-0.005,1.454-0.488c0.269-0.379,0.397-0.812,0.458-1.263
				c0.059-0.434,0.082-0.873,0.12-1.309c0.009-0.101,0.019-0.2,0.032-0.317c0.186,0,0.348,0,0.506,0
				c0.091,0.283,0.119,7.137,0.032,7.677c-0.169,0-0.344,0-0.553,0c-0.017-0.311-0.016-0.618-0.057-0.92
				c-0.06-0.434-0.13-0.867-0.234-1.291c-0.054-0.22-0.167-0.435-0.293-0.626c-0.331-0.505-0.794-0.661-1.468-0.518
				c0,2.637,0,5.278,0,7.973c0.722-0.035,1.429,0.087,2.125-0.096c0.611-0.161,1.081-0.532,1.448-1.04
				c0.526-0.731,0.775-1.568,0.901-2.446c0.062-0.433,0.082-0.872,0.119-1.31c0.011-0.125,0.024-0.25,0.036-0.393
				c0.185,0,0.348,0,0.567,0c0.022,2.001,0.005,3.995,0.011,5.981c-0.295,0.094-8.622,0.115-9.079,0.025c0-0.183,0-0.369,0-0.604
				c0.167,0,0.318,0.008,0.469-0.002c0.618-0.037,0.884-0.304,0.921-0.916c0.009-0.129,0.007-0.258,0.007-0.388
				c0-4.623,0-9.246-0.001-13.869c0-0.168,0.001-0.337-0.018-0.503c-0.054-0.487-0.325-0.739-0.812-0.759
				C78.456,38.749,78.266,38.755,78.057,38.755z"/>
			<path fill-rule="evenodd" clip-rule="evenodd" fill="#FFFFFF" d="M139.438,38.698c0-0.199,0-0.389,0-0.601
				c1.148,0,2.278,0,3.439,0c1.486,3.759,2.973,7.521,4.459,11.282c0.021-0.001,0.044-0.001,0.064-0.002
				c0.008-0.093,0.023-0.185,0.023-0.275c0.001-3.009,0.005-6.018-0.005-9.026c0-0.253-0.049-0.517-0.135-0.753
				c-0.137-0.372-0.424-0.576-0.835-0.57c-0.151,0.002-0.304,0.001-0.476,0.001c0-0.236,0-0.426,0-0.617
				c0.265-0.077,3.251-0.096,3.701-0.018c0,0.194,0,0.393,0,0.634c-0.166,0-0.306,0.004-0.443,0
				c-0.449-0.012-0.751,0.218-0.876,0.623c-0.09,0.29-0.119,0.607-0.12,0.913c-0.007,5.024-0.004,10.048-0.004,15.071
				c0,0.166,0,0.331,0,0.525c-0.311,0-0.587,0-0.892,0c-0.917-2.306-1.838-4.617-2.758-6.929c-0.914-2.301-1.829-4.601-2.78-6.996
				c-0.024,0.166-0.047,0.242-0.047,0.318c-0.002,3.875-0.002,7.749,0.001,11.624c0,0.152,0.011,0.311,0.047,0.459
				c0.131,0.547,0.451,0.804,1.014,0.829c0.103,0.006,0.205,0.002,0.342,0.002c0,0.216,0,0.412,0,0.631c-1.234,0-2.455,0-3.707,0
				c0-0.191,0-0.378,0-0.612c0.124-0.006,0.259-0.014,0.396-0.019c0.617-0.021,0.984-0.347,1.062-0.961
				c0.025-0.205,0.027-0.412,0.027-0.619c0.002-4.493,0.002-8.987,0-13.481c0-0.206,0-0.415-0.03-0.618
				c-0.057-0.392-0.289-0.795-0.854-0.763c-0.167,0.01-0.337-0.002-0.504-0.008C139.524,38.742,139.501,38.725,139.438,38.698z"/>
			<path fill-rule="evenodd" clip-rule="evenodd" fill="#FFFFFF" d="M54.93,55.225c0,0.194,0,0.372,0,0.55
				c-0.26,0.09-4.906,0.118-5.454,0.028c-0.007-0.093-0.02-0.191-0.021-0.29c-0.001-0.09,0.007-0.179,0.015-0.319
				c0.176,0,0.339,0.007,0.501-0.002c0.665-0.035,0.961-0.333,0.964-1.001c0.005-1.95,0.003-3.899,0.003-5.85
				c0-2.996,0-5.992,0-8.987c0-0.153,0-0.306,0-0.47c-0.546-0.114-0.992,0.008-1.371,0.377c-0.378,0.368-0.628,0.817-0.823,1.299
				c-0.402,0.993-0.569,2.034-0.612,3.098c-0.006,0.166-0.001,0.332-0.001,0.531c-0.21,0-0.393,0-0.595,0c0-2.024,0-4.035,0-6.047
				c0.263-0.084,8.57-0.12,9.334-0.037c0,2.017,0,4.036,0,6.087c-0.173,0-0.346,0-0.567,0c-0.007-0.128-0.017-0.264-0.021-0.399
				c-0.025-1.026-0.193-2.027-0.544-2.995c-0.169-0.463-0.382-0.903-0.692-1.29c-0.466-0.581-0.823-0.72-1.614-0.63
				c-0.01,0.093-0.027,0.191-0.027,0.289c-0.001,4.985-0.001,9.971,0.001,14.955c0.001,0.153,0.021,0.31,0.058,0.458
				c0.08,0.316,0.286,0.52,0.613,0.566C54.355,55.185,54.636,55.198,54.93,55.225z"/>
			<path fill-rule="evenodd" clip-rule="evenodd" fill="#FFFFFF" d="M93.823,38.88c0,0.162,0,0.303,0,0.443
				c0,4.868,0,9.736,0.002,14.604c0,0.192,0.007,0.389,0.042,0.577c0.066,0.35,0.272,0.586,0.635,0.64
				c0.265,0.041,0.534,0.052,0.827,0.077c0,0.189,0,0.378,0,0.564c-0.281,0.076-4.951,0.095-5.423,0.016c0-0.182,0-0.367,0-0.61
				c0.171,0,0.334,0.009,0.497-0.001c0.642-0.036,0.931-0.328,0.964-0.971c0.004-0.078,0.002-0.155,0.002-0.232
				c0-4.895,0-9.788,0-14.683c0-0.139,0-0.277,0-0.419c-0.561-0.119-1.006,0.013-1.385,0.382c-0.389,0.377-0.64,0.841-0.836,1.336
				c-0.411,1.032-0.558,2.115-0.604,3.217c-0.004,0.114-0.011,0.229-0.017,0.372c-0.186,0-0.359,0-0.534,0
				c-0.084-0.27-0.117-5.379-0.039-6.054c0.276-0.08,8.554-0.115,9.311-0.04c0.079,0.271,0.106,5.452,0.027,6.101
				c-0.165,0.008-0.338,0.016-0.547,0.026c-0.028-0.392-0.048-0.761-0.083-1.129c-0.095-1.022-0.312-2.015-0.782-2.937
				c-0.116-0.229-0.255-0.45-0.413-0.652C95.011,38.926,94.639,38.785,93.823,38.88z"/>
			<path fill-rule="evenodd" clip-rule="evenodd" fill="#FFFFFF" d="M45.669,38.944c0.111-0.216,0.204-0.398,0.299-0.578
				c0.159-0.301,0.161-0.301,0.569-0.217c0,2.016,0,4.036,0,6.083c-0.193,0-0.365,0-0.562,0c-0.027-0.471-0.044-0.933-0.082-1.392
				c-0.065-0.841-0.216-1.665-0.571-2.437c-0.354-0.769-0.867-1.396-1.736-1.579c-0.37-0.079-0.778-0.09-1.149-0.021
				c-0.633,0.12-1.043,0.555-1.223,1.169c-0.315,1.075-0.191,2.094,0.464,3.024c0.398,0.565,0.911,1.02,1.438,1.457
				c0.646,0.533,1.314,1.045,1.941,1.602c1.042,0.928,1.828,2.035,2.179,3.407c0.312,1.219,0.38,2.447,0.059,3.676
				c-0.428,1.641-1.667,2.688-3.504,2.834c-1.224,0.099-2.361-0.146-3.364-0.891c-0.052-0.038-0.11-0.066-0.167-0.098
				c-0.009-0.004-0.025,0.002-0.079,0.009c-0.12,0.256-0.249,0.532-0.388,0.828c-0.147,0-0.296,0-0.467,0c0-2.02,0-4.028,0-6.065
				c0.184,0,0.357,0,0.575,0c0.005,0.167,0.011,0.329,0.015,0.492c0.028,0.975,0.164,1.93,0.551,2.833
				c0.298,0.69,0.729,1.275,1.371,1.688c0.736,0.473,1.525,0.533,2.336,0.258c0.62-0.21,1.006-0.669,1.183-1.289
				c0.331-1.163,0.243-2.298-0.284-3.391c-0.273-0.564-0.627-1.076-1.078-1.505c-0.534-0.506-1.084-0.995-1.659-1.453
				c-0.831-0.664-1.64-1.343-2.228-2.242c-0.943-1.445-1.188-3.012-0.726-4.668c0.442-1.582,1.74-2.543,3.384-2.551
				C43.735,37.924,44.561,38.069,45.669,38.944z"/>
			<path fill-rule="evenodd" clip-rule="evenodd" fill="#FFFFFF" d="M101.72,53.225c0.047,1.28,1.049,2.114,2.261,1.93
				c0.501-0.076,0.816-0.352,0.981-0.817c0.192-0.545,0.215-1.112,0.216-1.681c0.004-2.402,0.002-4.805,0.002-7.206
				c0-1.833,0.001-3.668-0.002-5.501c-0.001-0.192-0.013-0.389-0.055-0.575c-0.089-0.393-0.337-0.59-0.736-0.616
				c-0.104-0.008-0.207-0.001-0.311-0.005c-0.088-0.004-0.176-0.014-0.293-0.024c0-0.213,0-0.41,0-0.632c1.746,0,3.482,0,5.247,0
				c0,0.204,0,0.403,0,0.656c-0.154,0-0.305-0.002-0.456,0.001c-0.614,0.013-0.89,0.276-0.932,0.895
				c-0.01,0.141-0.008,0.283-0.008,0.426c0,3.989,0,7.98,0,11.971c0,0.57-0.044,1.137-0.229,1.68
				c-0.433,1.265-1.37,1.923-2.64,2.169c-0.56,0.107-1.13,0.155-1.693,0.039c-1.142-0.235-1.895-0.944-2.328-2.006
				c-0.284-0.695-0.363-1.422-0.286-2.166c0.038-0.367,0.168-0.703,0.402-0.99c0.357-0.439,0.829-0.61,1.38-0.508
				c0.445,0.085,0.721,0.382,0.846,0.813c0.291,1.007-0.182,1.836-1.197,2.105C101.841,53.194,101.792,53.206,101.72,53.225z"/>
			<path fill-rule="evenodd" clip-rule="evenodd" fill="#FFFFFF" d="M170.774,54.715c0.001,0.445-0.139,0.779-0.439,1.041
				c-0.355,0.308-0.803,0.312-1.161,0.016c-0.559-0.46-0.611-1.386-0.106-1.901c0.255-0.261,0.569-0.368,0.918-0.267
				c0.419,0.122,0.649,0.442,0.757,0.854C170.767,54.557,170.769,54.662,170.774,54.715z"/>
		</g>
	</g>
	<g>
		<path fill-rule="evenodd" clip-rule="evenodd" fill="#FFFFFF" d="M139.624,5.475c0-0.417,0-0.758,0-1.134c3.021,0,6.011,0,9.034,0
			c0,0.376,0,0.717,0,1.136c-0.323,0-0.607-0.009-0.889,0.001c-0.854,0.032-1.313,0.435-1.446,1.27
			c-0.034,0.218-0.035,0.443-0.035,0.665c-0.002,8.491-0.002,16.981-0.002,25.473c0,0.194,0,0.389,0,0.653
			c1.227-0.015,2.397,0.164,3.551-0.146c1.009-0.271,1.764-0.909,2.338-1.769c0.746-1.114,1.125-2.367,1.312-3.671
			c0.146-1.032,0.193-2.078,0.282-3.117c0.013-0.15,0.022-0.3,0.036-0.477c0.338,0,0.64,0,0.975,0c0,3.505,0,6.981,0,10.498
			c-7.806,0-15.573,0-23.379,0c-0.017-0.2-0.034-0.371-0.04-0.541c-0.007-0.153-0.002-0.306-0.002-0.491
			c0.392-0.048,0.738-0.088,1.083-0.137c0.911-0.126,1.271-0.504,1.178-1.428c-0.096-0.946-0.295-1.885-0.458-2.825
			c-0.109-0.629-0.234-1.256-0.356-1.905c-1.728,0-3.411,0-5.182,0c-0.127,0.653-0.261,1.319-0.387,1.985
			c-0.132,0.722-0.27,1.441-0.382,2.164c-0.053,0.328-0.079,0.665-0.064,0.995c0.026,0.582,0.306,0.887,0.886,0.99
			c0.368,0.068,0.741,0.099,1.146,0.15c0,0.345,0,0.668,0,1.034c-2.169,0-4.312,0-6.49,0c0-0.352,0-0.673,0-1.028
			c0.361-0.043,0.708-0.089,1.057-0.126c0.714-0.077,1.183-0.474,1.434-1.127c0.113-0.288,0.206-0.588,0.266-0.892
			c1.343-6.953,2.68-13.906,4.019-20.86c0.401-2.093,0.805-4.185,1.212-6.277c0.033-0.171,0.095-0.339,0.153-0.54
			c0.623,0,1.239,0,1.92,0c0.132,0.629,0.271,1.25,0.395,1.875c1.646,8.251,3.292,16.502,4.938,24.753
			c0.1,0.5,0.171,1.011,0.33,1.493c0.516,1.578,1.52,1.924,3.165,1.497c0.435-0.112,0.699-0.479,0.791-0.916
			c0.063-0.302,0.083-0.617,0.083-0.927c0.004-8.112,0.003-16.225,0.003-24.337c0-0.089,0-0.178,0-0.267
			c-0.005-1.153-0.557-1.767-1.713-1.7C140.146,5.486,139.904,5.475,139.624,5.475z M132.497,26.028
			c-0.76-4.462-1.506-8.85-2.253-13.237c-0.048-0.003-0.097-0.006-0.145-0.009c-0.752,4.4-1.503,8.8-2.247,13.247
			C129.409,26.028,130.91,26.028,132.497,26.028z"/>
		<path fill-rule="evenodd" clip-rule="evenodd" fill="#FFFFFF" d="M118.37,35.104c-0.572,0-1.122,0-1.722,0
			c-1.148-5.779-2.293-11.543-3.437-17.307c-0.041,0.001-0.08,0.001-0.12,0.001c-1.169,5.756-2.335,11.512-3.511,17.297
			c-0.572,0-1.121,0-1.742,0c-0.156-0.737-0.321-1.491-0.472-2.245c-0.972-4.877-1.938-9.755-2.908-14.634
			c-0.687-3.462-1.369-6.927-2.059-10.387c-0.077-0.392-0.17-0.783-0.294-1.162c-0.246-0.759-0.774-1.167-1.586-1.186
			c-0.195-0.004-0.394-0.019-0.648-0.033c0-0.371,0-0.712,0-1.099c2.714,0,5.438,0,8.217,0c0,0.334,0,0.675,0,1.076
			c-0.176,0.02-0.367,0.039-0.56,0.06c-0.701,0.078-1.034,0.379-0.993,1.073c0.049,0.816,0.167,1.632,0.315,2.436
			c0.999,5.415,2.017,10.826,3.03,16.238c0.035,0.193,0.095,0.381,0.24,0.576c0.185-0.987,0.373-1.975,0.556-2.963
			c0.516-2.793,1.037-5.588,1.54-8.385c0.064-0.364,0.111-0.758,0.047-1.117c-0.372-2.053-0.78-4.1-1.179-6.149
			c-0.024-0.13-0.066-0.257-0.099-0.387c-0.221-0.858-0.693-1.412-1.631-1.344c-0.061,0.004-0.123-0.032-0.227-0.062
			c0-0.338,0-0.678,0-1.058c2.72,0,5.419,0,8.164,0c0.014,0.189,0.035,0.36,0.035,0.53c0,0.172-0.021,0.345-0.036,0.562
			c-0.265,0.019-0.505,0.031-0.743,0.054c-0.782,0.078-1.176,0.464-1.208,1.237c-0.015,0.352,0.01,0.714,0.078,1.06
			c1.125,5.798,2.257,11.594,3.392,17.389c0.023,0.122,0.078,0.238,0.221,0.353c0.145-0.746,0.295-1.491,0.433-2.237
			c0.93-5.022,1.859-10.043,2.775-15.067c0.084-0.455,0.136-0.93,0.105-1.388c-0.056-0.86-0.502-1.269-1.36-1.347
			c-0.261-0.023-0.524-0.032-0.825-0.051c0-0.377,0-0.719,0-1.098c2.283,0,4.544,0,6.856,0c0,0.342,0,0.684,0,1.099
			c-0.223,0.012-0.46,0.037-0.696,0.034c-0.943-0.017-1.572,0.451-1.883,1.306c-0.228,0.622-0.401,1.271-0.535,1.921
			c-1.8,8.628-3.59,17.258-5.383,25.888C118.484,34.759,118.424,34.924,118.37,35.104z"/>
		<path fill-rule="evenodd" clip-rule="evenodd" fill="#FFFFFF" d="M62.613,18.299c2.244,0,4.417,0,6.639,0
			c0.014-0.217,0.039-0.41,0.039-0.604c0.001-3.422,0.001-6.845,0-10.269c0-0.177,0-0.356-0.022-0.532
			c-0.124-0.975-0.601-1.398-1.593-1.419c-0.262-0.006-0.523-0.001-0.828-0.001c0-0.411,0-0.752,0-1.13c3.032,0,6.045,0,9.103,0
			c0,0.356,0,0.698,0,1.131c-0.319,0-0.624-0.009-0.928,0.001c-0.877,0.031-1.344,0.449-1.465,1.323
			c-0.033,0.241-0.04,0.486-0.04,0.731c-0.001,8.046,0.004,16.092-0.005,24.138c-0.001,1.228,0.208,2.149,2.038,2.104
			c0.126-0.003,0.254,0.026,0.417,0.041c0.01,0.205,0.026,0.379,0.026,0.551c0,0.151-0.017,0.302-0.028,0.491
			c-3.051,0-6.061,0-9.117,0c0-0.342,0-0.663,0-1.054c0.254-0.012,0.514-0.018,0.772-0.034c1.107-0.065,1.596-0.557,1.664-1.668
			c0.012-0.178,0.006-0.356,0.006-0.534c0-3.578,0-7.157,0-10.735c0-0.239,0-0.479,0-0.767c-2.255,0-4.44,0-6.712,0
			c0,0.255,0,0.494,0,0.732c0,3.624,0,7.246,0,10.871c0,0.153-0.003,0.31,0.008,0.464c0.079,1.114,0.563,1.587,1.688,1.638
			c0.239,0.012,0.479,0.001,0.763,0.001c0,0.381,0,0.702,0,1.024c-0.486,0.128-8.32,0.159-9.141,0.031c0-0.313,0-0.633,0-1.056
			c0.261,0,0.52,0.013,0.776-0.002c1.111-0.062,1.609-0.557,1.674-1.658c0.011-0.178,0.006-0.355,0.006-0.533
			c0-7.98,0-15.959-0.003-23.938c0-0.331-0.015-0.668-0.076-0.993c-0.142-0.743-0.58-1.118-1.326-1.16
			c-0.328-0.018-0.659-0.003-1.032-0.003c-0.024-0.224-0.055-0.393-0.059-0.561c-0.006-0.174,0.012-0.349,0.021-0.568
			c3.055,0,6.086,0,9.161,0c0,0.355,0,0.696,0,1.126c-0.354,0-0.682-0.011-1.008,0.002c-0.812,0.036-1.272,0.444-1.4,1.241
			c-0.034,0.217-0.052,0.441-0.052,0.663c-0.003,3.445-0.002,6.89-0.002,10.335C62.579,17.894,62.6,18.068,62.613,18.299z"/>
		<path fill-rule="evenodd" clip-rule="evenodd" fill="#FFFFFF" d="M88.227,25.633c-0.324,0-0.609,0-0.962,0
			c-0.018-0.297-0.023-0.58-0.055-0.859c-0.095-0.858-0.185-1.719-0.312-2.574c-0.045-0.301-0.17-0.599-0.297-0.879
			c-0.508-1.122-1.263-1.769-2.766-1.532c-0.139,0.454-0.185,12.737-0.038,13.769c1.196-0.053,2.411,0.156,3.609-0.159
			c1.006-0.264,1.791-0.865,2.414-1.684c0.826-1.087,1.286-2.336,1.506-3.662c0.166-1.003,0.216-2.028,0.316-3.043
			c0.018-0.172,0.032-0.345,0.049-0.545c0.321,0,0.606,0,0.891,0c0.141,0.467,0.177,9.539,0.034,10.392c-5.16,0-10.326,0-15.54,0
			c0-0.337,0-0.659,0-1.056c0.229-0.011,0.463-0.021,0.698-0.031c1.192-0.041,1.697-0.542,1.699-1.734
			c0.005-4.223,0.002-8.446,0.002-12.668c0-3.912,0-7.824,0-11.735c-0.001-0.222,0.006-0.445-0.005-0.666
			c-0.044-0.971-0.542-1.462-1.504-1.487c-0.285-0.008-0.569-0.001-0.91-0.001c0-0.404,0-0.745,0-1.127c5.189,0,10.376,0,15.602,0
			c0,3.485,0,6.94,0,10.437c-0.33,0-0.626,0-0.982,0c-0.021-0.507-0.049-0.988-0.063-1.472c-0.035-1.227-0.195-2.438-0.554-3.611
			c-0.182-0.591-0.414-1.176-0.708-1.718c-0.682-1.267-1.739-2.116-3.18-2.269c-1.112-0.118-2.25-0.023-3.411-0.023
			c0,4.2,0,8.386,0,12.567c1.42,0.204,2.256-0.233,2.819-1.473c0.458-1.009,0.584-2.089,0.627-3.182
			c0.013-0.373,0.001-0.747,0.001-1.192c0.381-0.017,0.677-0.031,0.96-0.044C88.319,12.889,88.364,24.633,88.227,25.633z"/>
		<path fill-rule="evenodd" clip-rule="evenodd" fill="#FFFFFF" d="M42.561,34.764c0-0.309,0-0.613,0-0.995
			c0.314,0,0.599,0.014,0.881-0.002c1.092-0.058,1.563-0.512,1.661-1.594c0.018-0.222,0.014-0.443,0.014-0.667
			c0.001-8.334,0.001-16.668,0.001-25.002c0-0.263,0-0.526,0-0.794c-1.04-0.235-1.845,0.062-2.517,0.779
			c-0.667,0.71-1.091,1.563-1.423,2.464c-0.628,1.707-0.857,3.487-0.932,5.292c-0.006,0.175-0.001,0.35-0.001,0.583
			c-0.353,0-0.667,0-1.02,0c0-3.493,0-6.969,0-10.483c5.373,0,10.715,0,16.092,0c0,3.513,0,6.988,0,10.499c-0.337,0-0.635,0-0.94,0
			c-0.086-0.945-0.144-1.853-0.258-2.752c-0.177-1.395-0.526-2.749-1.151-4.014c-0.216-0.436-0.475-0.855-0.76-1.25
			c-0.683-0.945-1.585-1.396-2.827-1.134c-0.013,0.178-0.038,0.371-0.038,0.564c-0.002,8.534-0.002,17.07,0.001,25.604
			c0,0.264,0.032,0.532,0.087,0.79c0.127,0.579,0.49,0.947,1.079,1.035c0.456,0.07,0.921,0.09,1.426,0.135c0,0.323,0,0.645,0,0.967
			C51.315,34.963,43.014,34.938,42.561,34.764z"/>
		<path fill-rule="evenodd" clip-rule="evenodd" fill="#FFFFFF" d="M170.767,34.862c-5.137,0-10.24,0-15.388,0
			c0-0.353,0-0.674,0-1.057c0.217-0.013,0.432-0.021,0.646-0.037c0.309-0.022,0.621-0.031,0.925-0.081
			c0.625-0.098,0.98-0.494,1.087-1.101c0.054-0.305,0.065-0.619,0.065-0.93c0.003-8.047,0.004-16.095,0-24.143
			c0-0.31-0.013-0.625-0.069-0.929c-0.123-0.666-0.559-1.048-1.238-1.096c-0.372-0.025-0.746-0.004-1.17-0.004c0-0.42,0-0.76,0-1.14
			c3.006,0,5.998,0,9.034,0c0.015,0.179,0.042,0.348,0.044,0.517c0.001,0.174-0.019,0.349-0.032,0.614
			c-0.305,0-0.587-0.008-0.868,0.001c-0.916,0.029-1.391,0.464-1.493,1.371c-0.021,0.176-0.016,0.355-0.016,0.533
			c0,8.493,0,16.986,0,25.478c0,0.197,0,0.394,0,0.636c0.207,0.024,0.374,0.06,0.543,0.061c0.578,0.008,1.157,0,1.735,0.004
			c1.638,0.016,2.847-0.733,3.703-2.093c0.701-1.108,1.059-2.348,1.229-3.634c0.134-0.987,0.178-1.988,0.263-2.983
			c0.011-0.13,0.026-0.26,0.044-0.436c0.316,0,0.615,0,0.911,0C170.85,24.901,170.893,33.735,170.767,34.862z"/>
	</g>
</g>
</svg>
