<?xml version="1.0" encoding="utf-8"?>
<!-- Generator: Adobe Illustrator 16.0.0, SVG Export Plug-In . SVG Version: 6.00 Build 0)  -->
<!DOCTYPE svg PUBLIC "-//W3C//DTD SVG 1.1//EN" "http://www.w3.org/Graphics/SVG/1.1/DTD/svg11.dtd">
<svg version="1.1" id="Layer_1" xmlns="http://www.w3.org/2000/svg" xmlns:xlink="http://www.w3.org/1999/xlink" x="0px" y="0px"
	 width="210px" height="60px" viewBox="0 0 210 60" enable-background="new 0 0 210 60" xml:space="preserve">
<g id="ryzj1l.tif">
	<g>
		<path fill-rule="evenodd" clip-rule="evenodd" fill="#FFFFFF" d="M66.02,23.887c-1.296,3.018-2.545,5.928-3.799,8.835
			c-0.663,1.534-1.347,3.062-1.999,4.6c-0.114,0.268-0.253,0.639-0.154,0.863c0.918,2.076,1.886,4.134,2.964,6.466
			c0.837-1.822,1.562-3.377,2.271-4.946c2.271-5.038,4.545-10.075,6.795-15.126c0.258-0.579,0.584-0.854,1.233-0.787
			c0.499,0.052,1.009,0.01,1.71,0.01c-4.34,9.611-8.611,19.069-12.985,28.758c-1.495-3.171-2.894-6.137-4.394-9.317
			c-1.484,3.177-2.866,6.135-4.35,9.309c-4.283-9.692-8.484-19.201-12.755-28.861c1.468,0,2.749-0.057,4.019,0.044
			c0.297,0.021,0.648,0.533,0.814,0.896c2.782,6.078,5.539,12.172,8.303,18.26c0.223,0.488,0.461,0.968,0.826,1.732
			c0.728-1.576,1.373-2.897,1.932-4.259c0.099-0.237-0.138-0.64-0.271-0.943c-2.182-4.965-4.371-9.93-6.557-14.893
			c-0.094-0.215-0.163-0.436-0.291-0.782c1.346,0,2.6-0.041,3.849,0.038c0.248,0.015,0.544,0.45,0.688,0.755
			c1.403,2.959,2.78,5.934,4.167,8.899c0.195,0.421,0.418,0.825,0.729,1.44c0.278-0.557,0.462-0.904,0.628-1.261
			c1.289-2.784,2.574-5.573,3.863-8.362C64.006,23.632,64.007,23.632,66.02,23.887z"/>
		<path fill-rule="evenodd" clip-rule="evenodd" fill="#FFFFFF" d="M131.214,38.147c-0.406,2.063-0.614,4.193-1.261,6.18
			c-1.581,4.854-4.942,7.938-9.964,9.027c-5.802,1.255-11.283,0.567-15.838-3.531c-4.806-4.322-6.362-9.8-4.489-15.988
			c1.846-6.104,6.24-9.527,12.446-10.603c3.684-0.643,7.288-0.217,10.686,1.421C128.073,27.201,131.122,32.238,131.214,38.147z
			 M103.157,38.348c0.064,0.579,0.095,1.682,0.317,2.742c1.068,5.128,3.598,9.047,8.973,10.486
			c4.688,1.257,9.247-0.276,11.745-3.903c3.459-5.02,3.45-13.009-0.021-18.011c-3.833-5.521-10.941-6.709-16.148-2.637
			C104.529,29.756,103.221,33.528,103.157,38.348z"/>
		<path fill-rule="evenodd" clip-rule="evenodd" fill="#FFFFFF" d="M22.911,52.21c-5.9-7.576-11.802-15.151-17.704-22.726
			c-0.098,0.04-0.196,0.08-0.295,0.117c0,7.457,0,14.915,0,22.459c-0.831,0-1.521,0-2.191,0c0-9.47,0-18.911,0-28.457
			c1.152,0,2.17-0.051,3.178,0.028c0.299,0.025,0.628,0.362,0.844,0.634c4.508,5.666,9.002,11.341,13.499,17.012
			c0.161,0.205,0.323,0.409,0.485,0.609c0.088-0.036,0.178-0.071,0.266-0.108c0-6.02,0-12.034,0-18.108c0.797,0,1.432,0,2.146,0
			c0,9.504,0,19,0,28.494C23.062,52.179,22.986,52.195,22.911,52.21z"/>
		<path fill-rule="evenodd" clip-rule="evenodd" fill="#FFFFFF" d="M140.259,36.305c0.423-0.221,0.697-0.38,0.982-0.513
			c3.146-1.455,4.16-6.499,1.819-9.059c-1.192-1.307-2.727-1.175-4.451-1.052c0,8.966,0,17.897,0,26.918c-1.486,0-2.791,0-4.088,0
			c0-9.492,0-18.959,0-28.659c3.013,0.121,5.888,0.038,8.701,0.413c2.555,0.342,4.187,2.33,4.476,4.693
			c0.347,2.828-0.78,5.023-3.235,6.264c-0.594,0.3-1.215,0.548-1.877,0.844c0.151,0.108,0.2,0.171,0.261,0.184
			c3.493,0.825,4.597,2.653,4.86,6.722c0.121,1.87,0.216,3.742,0.415,5.604c0.071,0.66,0.349,1.323,0.646,1.928
			c0.715,1.45,1.752,1.667,3.094,0.748c0.206-0.14,0.5-0.154,0.752-0.227c-0.115,0.256-0.174,0.566-0.356,0.758
			c-2.051,2.126-5.574,1.653-6.753-1.038c-0.6-1.373-0.849-2.937-1.037-4.439c-0.256-2.062-0.188-4.16-0.469-6.218
			c-0.252-1.851-1.013-3.449-3.287-3.528C140.631,36.645,140.556,36.534,140.259,36.305z"/>
		<path fill-rule="evenodd" clip-rule="evenodd" fill="#FFFFFF" d="M189.151,24.178c2.881,0.117,5.657,0.042,8.379,0.391
			c2.708,0.348,4.439,2.317,4.704,4.708c0.339,3.093-0.838,5.228-3.565,6.459c-0.46,0.209-0.927,0.402-1.62,0.705
			c0.47,0.162,0.727,0.265,0.99,0.339c2.43,0.68,3.706,2.35,3.978,4.786c0.153,1.386,0.066,2.799,0.221,4.186
			c0.175,1.584,0.335,3.199,0.797,4.713c0.567,1.856,1.781,2.13,3.396,1.023c0.165-0.113,0.375-0.163,0.848-0.358
			c-0.241,0.467-0.302,0.686-0.438,0.833c-2.147,2.381-5.809,1.935-6.963-1.033c-0.648-1.668-0.729-3.573-0.95-5.387
			c-0.207-1.688-0.155-3.414-0.403-5.094c-0.36-2.426-1.112-3.131-3.674-3.686c0.324-0.274,0.513-0.513,0.76-0.629
			c3.187-1.509,4.337-5.997,2.255-8.844c-0.91-1.244-2.37-1.665-4.784-1.27c0,8.888,0,17.816,0,26.83c-1.529,0-2.807,0-4.239,0
			C188.943,43.394,189.047,33.92,189.151,24.178z"/>
		<path fill-rule="evenodd" clip-rule="evenodd" fill="#FFFFFF" d="M158.647,33.966c0,6.253,0,12.452,0,18.729
			c-1.452,0-2.73,0-4.044,0c0-9.482,0-18.953,0-28.548c1.286,0,2.44-0.043,3.586,0.04c0.201,0.015,0.514,0.552,0.521,0.854
			c0.041,2.047,0.011,4.098,0.011,6.146c0,0.327,0.037,0.652,0.056,0.981c0.111,0.086,0.223,0.171,0.336,0.259
			c0.222-0.325,0.409-0.682,0.669-0.972c1.821-2.036,3.762-3.974,5.45-6.114c0.999-1.268,2.115-1.205,3.633-1.051
			c-2.655,2.949-5.19,5.766-7.802,8.666c0.681,0.242,1.206,0.388,1.695,0.608c2.301,1.041,3.107,3.094,3.384,5.367
			c0.238,1.957,0.172,3.95,0.349,5.92c0.16,1.755,0.278,3.552,0.756,5.233c0.585,2.063,1.73,2.335,3.55,1.168
			c0.157-0.104,0.378-0.104,0.667-0.178c-0.985,2.437-4.756,2.912-6.528,0.953c-1.08-1.192-1.512-2.688-1.625-4.231
			c-0.152-2.105-0.108-4.228-0.226-6.339c-0.083-1.494-0.204-2.999-0.467-4.471C162.266,35.021,160.663,33.787,158.647,33.966z"/>
		<path fill-rule="evenodd" clip-rule="evenodd" fill="#FFFFFF" d="M38.941,26.421c-2.082-1.244-4.327-1.271-6.592-1.226
			c-0.446,0.008-0.811,0.023-0.809,0.625c0.012,3.102,0.006,6.203,0.006,9.479c2.537-0.221,5.091,0.559,7.564-0.691
			c0,1.16,0,2.307,0,3.631c-2.342-1.859-4.969-0.926-7.555-1.268c0,4.502,0,8.846,0,13.34c4.836-0.029,9.752,0.658,14.379-1.928
			c-0.59,1.204-1.161,2.42-1.789,3.605c-0.092,0.178-0.449,0.307-0.686,0.303c-5.359-0.009-10.72-0.042-16.078-0.073
			c-0.062-0.002-0.125-0.048-0.219-0.086c0-9.452,0-18.915,0-28.51c0.802,0,1.475,0,2.145,0c2.492,0,4.985,0.029,7.477-0.014
			c0.695-0.011,1.062,0.211,1.291,0.856C38.314,25.137,38.649,25.771,38.941,26.421z"/>
		<path fill-rule="evenodd" clip-rule="evenodd" fill="#FFFFFF" d="M186.205,27.059c-2.804-1.696-5.781-1.18-8.836-1.295
			c0,1.721,0.002,3.314-0.001,4.909c-0.001,1.468-0.04,2.938,0.014,4.402c0.01,0.283,0.362,0.787,0.568,0.794
			c1.774,0.052,3.551,0.048,5.323-0.013c0.488-0.015,0.968-0.265,1.477-0.415c0,0.891,0,1.76,0,2.699
			c-2.408-1.099-4.866-0.519-7.406-0.702c0,4.548,0,8.967,0,13.49c3.063,0.112,6.14,0.169,9.201-0.938
			c-0.658,0.88-1.299,1.776-1.991,2.631c-0.142,0.175-0.479,0.265-0.727,0.265c-3.38-0.002-6.761-0.027-10.14-0.05
			c-0.132,0-0.261-0.048-0.332-0.061c0-9.514,0-18.976,0-28.539c1.492,0,2.781-0.002,4.07,0c2.221,0.004,4.44,0.031,6.659,0.006
			c0.629-0.006,1.013,0.156,1.229,0.791C185.556,25.727,185.903,26.383,186.205,27.059z"/>
		<path fill-rule="evenodd" clip-rule="evenodd" fill="#FFFFFF" d="M90.766,36.917c0.273-0.408,0.471-0.671,0.636-0.952
			c2.043-3.473,4.085-6.942,6.118-10.42c1.062-1.812,1.053-1.816,3.376-1.529c-0.214,0.421-0.389,0.805-0.601,1.165
			c-2.297,3.915-4.611,7.818-6.883,11.749c-0.273,0.474-0.442,1.075-0.451,1.622c-0.06,4.202-0.068,8.401-0.094,12.604
			c-0.002,0.402,0,0.807,0,1.28c-1.483,0-2.86,0-4.355,0c0-2.266-0.01-4.476,0.002-6.681c0.01-2.117-0.002-4.239,0.082-6.353
			c0.049-1.247-0.265-2.314-0.896-3.386c-2.184-3.701-4.303-7.444-6.444-11.171c-0.152-0.264-0.295-0.534-0.445-0.805
			c1.524-0.592,2.354-0.326,3.101,0.981c2.047,3.587,4.091,7.172,6.14,10.757C90.246,36.125,90.472,36.452,90.766,36.917z"/>
		<path fill-rule="evenodd" clip-rule="evenodd" fill="#FFFFFF" d="M101.676,6.188c0.722,0,1.356,0,2.129,0c0,1.7,0,3.352,0,5.061
			c1.691,0,3.247,0,5,0c0-1.354,0.056-2.707-0.02-4.051c-0.049-0.896,0.302-1.08,1.117-1.07c0.784,0.008,1.159,0.132,1.137,1.053
			c-0.077,3.31-0.068,6.621-0.098,9.93c-0.003,0.303-0.046,0.604-0.072,0.941c-0.699,0-1.335,0-2.063,0c0-1.906,0-3.77,0-5.742
			c-1.695,0-3.302,0-5.028,0c0,1.906,0,3.773,0,5.708c-0.752,0-1.385,0-2.102,0C101.676,14.123,101.676,10.221,101.676,6.188z"/>
		<path fill-rule="evenodd" clip-rule="evenodd" fill="#FFFFFF" d="M92.166,17.99c0-3.7,0-7.303,0-11.222
			c-1.446,0.298-2.74,0.565-4.007,0.829c-0.093-1.296,0.112-1.525,1.532-1.518c2.389,0.012,4.775,0.022,7.166,0.031
			c1.562,0.004,1.646,0.086,1.777,1.621c-1.051-0.244-2.15-0.523-3.262-0.752c-0.709-0.146-0.934,0.197-0.928,0.91
			c0.02,2.9-0.014,5.801-0.025,8.701c-0.006,1.5-0.002,1.5-1.494,1.461C92.727,18.046,92.527,18.021,92.166,17.99z"/>
		<path fill-rule="evenodd" clip-rule="evenodd" fill="#FFFFFF" d="M117.335,6.918c0,1.627,0,2.945,0,4.306c0.996,0,1.931,0,2.942,0
			c0,0.353,0,0.776,0,1.29c-0.193-0.062-0.368-0.128-0.549-0.172c-2.105-0.539-2.481-0.258-2.491,1.881
			c-0.004,0.951-0.001,1.904-0.001,3.127c1.67-0.117,3.259-0.225,4.779-0.329c-0.243,1.097-0.25,1.101-1.574,1.101
			c-1.732,0-3.466,0-5.232,0c0-4.019,0-7.92,0-11.916c1.75,0,3.418-0.066,5.073,0.055c0.35,0.026,0.647,0.746,0.984,1.164
			C119.861,7.244,118.646,7.088,117.335,6.918z"/>
	</g>
</g>
</svg>
