<?xml version="1.0" encoding="utf-8"?>
<!-- Generator: Adobe Illustrator 16.0.0, SVG Export Plug-In . SVG Version: 6.00 Build 0)  -->
<!DOCTYPE svg PUBLIC "-//W3C//DTD SVG 1.1//EN" "http://www.w3.org/Graphics/SVG/1.1/DTD/svg11.dtd">
<svg version="1.1" id="Layer_1" xmlns="http://www.w3.org/2000/svg" xmlns:xlink="http://www.w3.org/1999/xlink" x="0px" y="0px"
	 width="210px" height="60px" viewBox="0 0 210 60" enable-background="new 0 0 210 60" xml:space="preserve">
<g id="_x33_P3IGt.tif">
	<g>
		<path fill="#FFFFFF" d="M135.852,51.132c0-12.143,0-24.245,0-36.359c0.123-0.05,0.22-0.123,0.313-0.123
			c5.377,0.014,10.762-0.13,16.135,0.095c6.153,0.253,10.187,6.119,8.523,12.031c-0.474,1.686-1.505,2.957-2.845,4.023
			c-0.325,0.262-0.65,0.529-1.032,0.843c2.749,1.336,4.831,3.186,5.778,6.062c2.142,6.472-2.558,13.275-9.481,13.489
			c-5.692,0.171-11.396,0.033-17.097,0.028C136.081,51.224,136.013,51.187,135.852,51.132z M143.536,35.218
			c0,3.558,0,6.985,0,10.473c2.519,0,4.971,0.097,7.409-0.028c2.53-0.125,4.58-2.458,4.695-5.097
			c0.116-2.489-1.849-5.109-4.309-5.303C148.767,35.061,146.171,35.218,143.536,35.218z M143.537,20.215c0,3.171,0,6.273,0,9.441
			c2.063,0,4.057,0.09,6.037-0.027c2.406-0.146,4.213-2.225,4.243-4.66c0.026-2.46-1.691-4.542-4.13-4.722
			C147.679,20.097,145.652,20.215,143.537,20.215z"/>
		<path fill="#FFFFFF" d="M123.84,14.745c2.605,0,5.076,0,7.598,0c0,12.362,0,24.662,0,37.228
			c-3.978-3.633-7.803-7.121-11.624-10.608c-3.807-3.477-7.611-6.951-11.64-10.627c0,6.954,0,13.646,0,20.406
			c-2.599,0-5.036,0-7.555,0c0-12.352,0-24.687,0-37.23c7.731,7.056,15.381,14.04,23.219,21.191
			C123.84,28.184,123.84,21.488,123.84,14.745z"/>
		<path fill="#FFFFFF" d="M51.438,45.224c-0.84-1.927-1.677-3.854-2.52-5.779c-2.945-6.732-5.9-13.459-8.83-20.195
			c-2.049-4.708,0.205-9.808,4.972-11.315c5.864-1.855,11.555,3.168,10.568,9.242c-0.742,4.554-1.315,9.136-1.968,13.703
			c-0.603,4.207-1.211,8.413-1.815,12.622c-0.083,0.568-0.165,1.136-0.245,1.703C51.543,45.211,51.493,45.217,51.438,45.224z"/>
		<path fill="#FFFFFF" d="M61.657,48.758c0.889-2.017,1.778-4.036,2.667-6.056c2.848-6.492,5.687-12.987,8.545-19.474
			c1.458-3.311,4.03-5.099,7.631-5.179c4.596-0.1,8.324,3.77,8.212,8.363c-0.067,2.619-1.154,4.729-3.206,6.345
			c-0.284,0.226-0.592,0.428-0.893,0.634c-7.609,5.152-15.219,10.306-22.83,15.456C61.74,48.815,61.697,48.788,61.657,48.758z"/>
		<path fill="#FFFFFF" d="M61.352,45.367c-0.272-1.898-0.525-3.653-0.776-5.409c-0.604-4.21-1.208-8.422-1.805-12.632
			c-0.304-2.117-0.59-4.237-0.877-6.358c-0.213-1.551,0.431-2.622,1.845-3.266c0.317-0.144,0.604-0.35,1.087-0.637
			c-1.251-0.644-2.422-0.267-3.579-0.46c-0.246-2.434,0.417-4.581,2.064-6.347c2.298-2.47,5.167-3.327,8.414-2.381
			c3.249,0.948,5.188,3.225,5.813,6.537c0.275,1.451,0.148,2.932-0.454,4.31c-3.823,8.77-7.663,17.534-11.497,26.299
			C61.558,45.094,61.503,45.15,61.352,45.367z"/>
		<path fill="#FFFFFF" d="M51.061,48.778c-0.837-0.567-1.674-1.134-2.513-1.703c-6.87-4.657-13.751-9.301-20.607-13.981
			c-2.917-1.988-4.164-4.833-3.549-8.273c0.632-3.549,2.885-5.768,6.414-6.589c3.72-0.864,7.553,1.171,9.194,4.864
			c1.766,3.977,3.498,7.968,5.247,11.953c1.884,4.297,3.768,8.591,5.652,12.884c0.103,0.235,0.194,0.472,0.291,0.707
			C51.144,48.685,51.104,48.735,51.061,48.778z"/>
		<path fill="#FFFFFF" d="M60.476,51.514c2.732-1.842,5.35-3.603,7.967-5.366c4.704-3.165,9.394-6.347,14.113-9.483
			c5.057-3.363,11.514-0.731,12.789,5.181c1.014,4.707-2.762,9.669-7.573,9.714c-8.997,0.08-17.995,0.025-26.992,0.025
			C60.732,51.584,60.683,51.561,60.476,51.514z"/>
		<path fill="#FFFFFF" d="M52.377,51.584c-0.347,0-0.594,0-0.842,0c-8.579,0-17.155,0.003-25.735,0
			c-4.166-0.004-7.81-3.129-8.226-7.044c-0.484-4.528,2.244-8.37,6.628-9.209c2.038-0.389,4.042-0.09,5.791,1.079
			c7.403,4.95,14.781,9.938,22.167,14.913C52.215,51.36,52.249,51.429,52.377,51.584z"/>
		<path fill="#FFFFFF" d="M192.463,22.148c-7.502-4.118-13.979-0.906-16.894,2.774c-3.64,4.609-3.793,10.875-0.337,15.546
			c1.993,2.685,4.671,4.35,7.952,4.969c3.23,0.61,6.271-0.049,9.275-1.812c0,2.45,0.021,4.705-0.04,6.96
			c-0.003,0.244-0.447,0.572-0.751,0.688c-6.231,2.235-12.164,1.353-17.636-2.14c-6.49-4.153-9.836-10.231-9.059-17.96
			c0.846-8.386,5.798-13.851,13.638-16.655c4.269-1.527,8.627-1.588,12.965-0.073c0.683,0.238,0.921,0.554,0.902,1.286
			C192.43,17.83,192.463,19.932,192.463,22.148z"/>
	</g>
</g>
</svg>
