<?xml version="1.0" encoding="utf-8"?>
<!-- Generator: Adobe Illustrator 16.0.0, SVG Export Plug-In . SVG Version: 6.00 Build 0)  -->
<!DOCTYPE svg PUBLIC "-//W3C//DTD SVG 1.1//EN" "http://www.w3.org/Graphics/SVG/1.1/DTD/svg11.dtd">
<svg version="1.1" id="Layer_1" xmlns="http://www.w3.org/2000/svg" xmlns:xlink="http://www.w3.org/1999/xlink" x="0px" y="0px"
	 width="210px" height="60px" viewBox="0 0 210 60" enable-background="new 0 0 210 60" xml:space="preserve">
<g id="SFH5wk.tif">
	<g>
		<path fill-rule="evenodd" clip-rule="evenodd" fill="#FFFFFF" d="M117.384,51c-0.627-0.048-1.258-0.068-1.879-0.146
			c-1.688-0.208-3.376-0.421-5.059-0.669c-0.908-0.136-1.804-0.349-2.741-0.532c0.016-0.318,0.036-0.607,0.042-0.895
			c0.035-2.092,0.084-4.183,0.098-6.274c0.032-5.297,0.054-10.591,0.069-15.888c0.006-1.823-0.003-3.647-0.04-5.47
			c-0.03-1.589-0.083-3.176-0.178-4.761c-0.053-0.864-0.278-1.707-0.722-2.463c-0.435-0.743-1.142-1.113-1.962-1.279
			c-0.353-0.072-0.713-0.12-1.072-0.147c-0.199-0.015-0.27-0.098-0.27-0.28c0.001-0.28,0-0.561,0-0.905
			c4.275-0.766,8.541-1.531,12.781-2.291c-0.044,4.553-0.089,9.078-0.132,13.663c0.475-0.221,0.88-0.416,1.291-0.599
			c2.195-0.976,4.506-1.308,6.874-1.062c2.994,0.313,5.397,1.763,7.273,4.093c1.58,1.964,2.476,4.232,2.869,6.707
			c0.43,2.699,0.282,5.378-0.411,8.014c-1.308,4.953-4.323,8.388-9.184,10.13c-1.647,0.588-3.351,0.904-5.098,0.988
			c-0.127,0.006-0.251,0.043-0.377,0.065C118.833,51,118.108,51,117.384,51z M125.896,35.31c-0.122-1.229-0.205-2.463-0.374-3.686
			c-0.247-1.783-0.787-3.478-1.782-4.999c-0.843-1.286-1.958-2.219-3.504-2.537c-1.256-0.258-2.454,0.016-3.641,0.407
			c-0.205,0.066-0.266,0.156-0.268,0.366c-0.016,2.103-0.07,4.206-0.059,6.309c0.024,4.454,0.074,8.905,0.131,13.358
			c0.018,1.309,0.094,2.614,0.131,3.922c0.005,0.204,0.074,0.3,0.273,0.319c0.291,0.028,0.58,0.07,0.869,0.104
			c1.905,0.215,3.529-0.311,4.797-1.805c0.936-1.1,1.582-2.359,2.063-3.708C125.465,40.761,125.798,38.064,125.896,35.31z"/>
		<path fill-rule="evenodd" clip-rule="evenodd" fill="#FFFFFF" d="M64.615,51c-0.648-0.072-1.298-0.122-1.942-0.22
			c-3.765-0.574-6.855-2.276-9.022-5.477c-1.223-1.805-1.92-3.821-2.297-5.959c-0.269-1.527-0.355-3.067-0.265-4.607
			c0.219-3.729,1.415-7.083,4.012-9.835c2.102-2.229,4.726-3.52,7.729-4.068c1.688-0.309,3.391-0.375,5.095-0.206
			c3.034,0.305,5.799,1.278,8.086,3.376c1.922,1.763,3.117,3.96,3.821,6.449c0.489,1.73,0.702,3.503,0.692,5.291
			c-0.023,3.64-0.95,7.011-3.218,9.928c-1.365,1.759-3.084,3.074-5.117,3.978c-1.723,0.764-3.529,1.181-5.409,1.292
			c-0.114,0.007-0.227,0.039-0.341,0.06C65.831,51,65.223,51,64.615,51z M71.431,36.051c0-0.678,0.015-1.355-0.003-2.033
			c-0.057-2.106-0.331-4.185-0.917-6.212c-0.428-1.479-1.02-2.878-2.082-4.038c-1.475-1.61-3.855-1.775-5.508-0.352
			c-0.792,0.682-1.249,1.592-1.605,2.552c-0.743,2.001-1.004,4.096-1.114,6.208c-0.08,1.537-0.078,3.081-0.082,4.622
			c-0.003,1.943,0.217,3.864,0.632,5.763c0.359,1.638,0.869,3.221,1.842,4.611c0.548,0.783,1.229,1.418,2.152,1.721
			c1.63,0.533,3.535-0.032,4.645-1.7c0.784-1.179,1.196-2.495,1.48-3.863C71.372,40.929,71.446,38.49,71.431,36.051z"/>
		<path fill-rule="evenodd" clip-rule="evenodd" fill="#FFFFFF" d="M151.206,51c-0.541-0.072-1.084-0.129-1.624-0.219
			c-5.107-0.854-8.816-3.561-10.929-8.334c-1.029-2.326-1.377-4.792-1.255-7.317c0.15-3.075,0.978-5.95,2.717-8.527
			c1.559-2.312,3.635-3.98,6.23-5c2.426-0.953,4.946-1.233,7.522-0.965c2.37,0.247,4.502,1.095,6.271,2.734
			c1.344,1.245,2.276,2.767,2.916,4.475c0.556,1.481,0.877,3.017,0.992,4.593c0.046,0.628,0.071,1.257,0.109,1.94
			c-5.991,0-11.945,0-17.862,0c0,0.841-0.055,1.636,0.013,2.421c0.126,1.529,0.472,3.017,1.116,4.42
			c1.137,2.48,2.95,4.225,5.583,5.054c1.382,0.435,2.802,0.533,4.25,0.479c2.13-0.081,4.009-0.8,5.721-2.103
			c0.262,0.319,0.509,0.622,0.77,0.938c-0.562,0.811-1.245,1.491-1.999,2.101c-2.147,1.742-4.615,2.739-7.334,3.153
			c-0.436,0.066-0.875,0.106-1.312,0.158C152.47,51,151.838,51,151.206,51z M146.176,32.311c3.089-0.065,6.084-0.13,9.083-0.194
			c0.012-0.076,0.024-0.121,0.025-0.166c0.027-1.615-0.083-3.221-0.375-4.809c-0.214-1.173-0.521-2.323-1.189-3.337
			c-0.965-1.472-2.589-1.785-4.038-0.781c-0.678,0.469-1.163,1.107-1.568,1.813c-0.869,1.52-1.332,3.177-1.614,4.887
			C146.361,30.561,146.286,31.409,146.176,32.311z"/>
		<path fill-rule="evenodd" clip-rule="evenodd" fill="#FFFFFF" d="M175.347,51c-0.512-0.048-1.021-0.096-1.531-0.141
			c-2.41-0.215-4.78-0.629-7.077-1.417c-0.321-0.11-0.458-0.258-0.462-0.64c-0.025-2.291-0.093-4.58-0.148-6.87
			c-0.008-0.303-0.045-0.606-0.028-0.908c0.006-0.1,0.115-0.247,0.21-0.28c0.339-0.119,0.745-0.346,1.024-0.246
			c0.229,0.082,0.321,0.566,0.455,0.88c0.627,1.462,1.312,2.89,2.33,4.132c1.206,1.471,2.692,2.474,4.614,2.722
			c1.624,0.21,3.166,0.055,4.497-1.04c1.796-1.479,2.327-4.913-0.257-6.652c-1.497-1.009-3.162-1.639-4.845-2.235
			c-1.59-0.562-3.133-1.211-4.49-2.237c-1.792-1.354-2.74-3.155-2.931-5.387c-0.117-1.364,0.037-2.681,0.551-3.945
			c0.805-1.982,2.201-3.444,4.041-4.497c1.742-0.999,3.632-1.506,5.627-1.626c3.357-0.205,6.637,0.179,9.81,1.337
			c0.243,0.088,0.332,0.201,0.338,0.471c0.04,2.044,0.101,4.088,0.155,6.132c0.012,0.337,0.031,0.673,0.047,1.025
			c-0.452,0.133-0.872,0.257-1.328,0.392c-0.099-0.273-0.187-0.521-0.277-0.767c-0.477-1.283-1.033-2.527-1.824-3.651
			c-1.025-1.459-2.347-2.486-4.147-2.796c-1.139-0.195-2.268-0.202-3.301,0.395c-1.312,0.757-1.925,1.951-2.038,3.43
			c-0.133,1.728,0.745,2.905,2.1,3.807c1.418,0.942,2.976,1.603,4.548,2.23c1.463,0.582,2.925,1.165,4.251,2.034
			c1.729,1.132,2.973,2.61,3.378,4.692c0.077,0.397,0.123,0.801,0.181,1.202c0,0.445,0,0.89,0,1.333
			c-0.021,0.114-0.055,0.226-0.065,0.34c-0.226,2.214-1.112,4.105-2.753,5.623c-1.886,1.745-4.184,2.573-6.677,2.945
			c-0.621,0.092-1.247,0.144-1.871,0.215C176.75,51,176.047,51,175.347,51z"/>
		<path fill-rule="evenodd" clip-rule="evenodd" fill="#FFFFFF" d="M36.702,12.613c-0.125,5.483-0.25,10.923-0.375,16.418
			c0.199,0,0.31,0.004,0.42-0.001c1.565-0.067,3.131-0.109,4.692-0.21c1.531-0.099,2.596-0.94,3.332-2.244
			c0.54-0.957,0.813-2.002,1.042-3.065c0.02-0.091,0.113-0.233,0.176-0.236c0.511-0.019,1.022-0.011,1.549-0.011
			c0,4.553,0,9.071,0,13.632c-0.531,0-1.042,0.009-1.552-0.014c-0.066-0.002-0.157-0.171-0.179-0.272
			c-0.254-1.169-0.57-2.311-1.222-3.33c-0.768-1.202-1.842-1.884-3.29-1.94c-1.482-0.059-2.963-0.132-4.446-0.198
			c-0.137-0.007-0.275-0.001-0.451-0.001c0,0.453-0.008,0.883,0.002,1.311c0.047,2.243,0.062,4.488,0.161,6.729
			c0.073,1.63,0.23,3.257,0.407,4.88c0.095,0.869,0.348,1.713,0.775,2.489c0.56,1.015,1.421,1.573,2.567,1.725
			c0.786,0.103,1.567,0.239,2.349,0.364c0.173,0.028,0.291,0.094,0.279,0.317c-0.021,0.405-0.006,0.812-0.006,1.244
			c-7.255,0-14.475,0-21.747,0c0-0.456-0.017-0.908,0.015-1.358c0.007-0.079,0.206-0.187,0.331-0.211
			c0.696-0.14,1.398-0.258,2.098-0.382c1.355-0.24,2.185-1.088,2.662-2.324c0.451-1.165,0.654-2.389,0.701-3.627
			c0.125-3.199,0.223-6.398,0.291-9.599c0.048-2.255,0.058-4.512,0.033-6.768c-0.023-2.103-0.072-4.207-0.192-6.307
			c-0.083-1.452-0.259-2.903-0.489-4.339c-0.103-0.641-0.374-1.28-0.685-1.859c-0.63-1.173-1.736-1.638-3-1.79
			c-0.567-0.069-1.137-0.11-1.737-0.168c0-0.558,0-1.111,0-1.694c11.264,0,22.531,0,33.86,0c0,0.238-0.004,0.488,0,0.739
			c0.029,1.508,0.061,3.015,0.09,4.522c0.038,1.892,0.067,3.785,0.118,5.677c0.007,0.299-0.087,0.432-0.375,0.504
			c-0.505,0.127-1.002,0.294-1.534,0.454c-0.136-0.375-0.264-0.733-0.397-1.09c-0.607-1.624-1.333-3.184-2.391-4.572
			c-1.52-1.992-3.508-3.198-6.021-3.314c-2.414-0.113-4.837-0.062-7.255-0.082C37.147,12.613,36.985,12.613,36.702,12.613z"/>
		<path fill-rule="evenodd" clip-rule="evenodd" fill="#FFFFFF" d="M98.623,48.707c0,0.52,0,0.994,0,1.494
			c-5.953,0-11.888,0-17.858,0c0-0.487,0-0.98,0-1.5c0.474-0.072,0.942-0.154,1.413-0.213c1.104-0.143,1.833-0.738,2.223-1.774
			c0.359-0.957,0.399-1.962,0.424-2.965c0.058-2.3,0.131-4.603,0.14-6.905c0.01-2.44-0.028-4.882-0.084-7.323
			c-0.02-0.849-0.105-1.704-0.255-2.539c-0.331-1.834-1.05-2.463-2.891-2.654c-0.104-0.01-0.208-0.024-0.31-0.045
			c-0.224-0.047-0.598-0.048-0.638-0.162c-0.098-0.283-0.055-0.619-0.039-0.933c0.002-0.063,0.128-0.159,0.209-0.175
			c2.274-0.448,4.548-0.889,6.824-1.33c1.918-0.373,3.838-0.744,5.831-1.132c-0.059,2.197-0.117,4.366-0.175,6.535
			c0.023,0.003,0.046,0.007,0.069,0.011c0.269-0.496,0.524-1.001,0.812-1.487c0.986-1.663,2.233-3.092,3.932-4.052
			c2.228-1.259,4.544-1.527,6.94-0.451c0.293,0.132,0.362,0.261,0.235,0.579c-0.935,2.35-1.847,4.708-2.768,7.064
			c-0.05,0.129-0.105,0.257-0.157,0.384c-0.622-0.292-1.211-0.627-1.84-0.853c-2.023-0.73-4.056-0.814-6.071,0.055
			c-0.107,0.047-0.209,0.104-0.313,0.157c-0.609,0.309-0.911,0.736-0.905,1.487c0.021,2.98-0.079,5.961-0.036,8.942
			c0.032,2.156,0.203,4.312,0.348,6.467c0.033,0.491,0.18,0.984,0.334,1.458c0.329,1.013,1.091,1.51,2.114,1.629
			C96.95,48.57,97.775,48.63,98.623,48.707z"/>
	</g>
</g>
</svg>
