<?xml version="1.0" encoding="utf-8"?>
<!-- Generator: Adobe Illustrator 16.0.0, SVG Export Plug-In . SVG Version: 6.00 Build 0)  -->
<!DOCTYPE svg PUBLIC "-//W3C//DTD SVG 1.1//EN" "http://www.w3.org/Graphics/SVG/1.1/DTD/svg11.dtd">
<svg version="1.1" id="Layer_1" xmlns="http://www.w3.org/2000/svg" xmlns:xlink="http://www.w3.org/1999/xlink" x="0px" y="0px"
	 width="210px" height="60px" viewBox="0 0 210 60" enable-background="new 0 0 210 60" xml:space="preserve">
<g>
	<g id="heXpOQ.tif">
		<g>
			<path fill="#FFFFFF" d="M190.024,22.018c-1.688,3.745-3.372,7.495-5.053,11.237c-0.142,0.012-0.288,0.021-0.426,0.029
				c-1.62-3.708-3.239-7.41-4.858-11.119c-0.087,0.021-0.175,0.035-0.261,0.054c-0.21,2.917-0.438,5.833-0.628,8.754
				c-0.053,0.803,0.368,1.265,1.213,1.297c0.248,0.007,0.49,0.124,0.715,0.465c-1.703,0-3.401,0-5.23,0
				c0.166-0.19,0.271-0.421,0.384-0.421c1.382-0.02,1.703-0.952,1.812-2.075c0.282-2.938,0.57-5.87,0.837-8.805
				c0.159-1.705,0.005-1.912-1.671-2.432c-0.186-0.062-0.369-0.106-0.559-0.159c0.09-0.151,0.179-0.302,0.263-0.45
				c1.357,0,2.724-0.035,4.079,0.038c0.22,0.013,0.47,0.482,0.606,0.784c1.319,2.949,2.606,5.901,3.915,8.854
				c0.146,0.319,0.317,0.626,0.566,1.11c1.438-3.203,2.866-6.212,4.13-9.291c0.484-1.188,1.064-1.7,2.365-1.484
				c0.826,0.136,1.696,0.026,2.544,0.026c0.026,0.116,0.044,0.237,0.062,0.354c-0.277,0.086-0.551,0.21-0.834,0.247
				c-0.851,0.1-1.299,0.507-1.223,1.42c0.304,3.535,0.56,7.072,0.921,10.601c0.049,0.433,0.666,0.822,1.062,1.177
				c0.169,0.154,0.46,0.174,0.66,0.521c-2.06,0-4.113,0-6.188,0c0.018-0.159,0.007-0.29,0.041-0.305
				c1.706-0.682,1.717-0.682,1.594-2.647c-0.171-2.572-0.359-5.134-0.541-7.708C190.219,22.068,190.125,22.041,190.024,22.018z"/>
			<path fill="#FFFFFF" d="M85.734,52.062c-2.084,0-4.174,0-6.39,0c0.134-0.231,0.206-0.455,0.28-0.455
				c1.491-0.005,1.569-0.966,1.549-2.114c-0.04-3.105-0.036-6.219,0-9.327c0.012-1.079-0.105-1.945-1.469-1.924
				c-0.067,0-0.147-0.065-0.188-0.124c-0.045-0.061-0.05-0.145-0.101-0.349c2.114,0,4.203,0,6.29,0
				c0.027,0.079,0.052,0.159,0.081,0.241c-0.264,0.09-0.577,0.124-0.793,0.29c-0.425,0.321-1.107,0.691-1.143,1.093
				c-0.134,1.49-0.055,3-0.055,4.581c2.497,0,4.873,0,7.434,0c0-1.62,0.049-3.232-0.048-4.841c-0.021-0.301-0.609-0.607-0.992-0.82
				c-0.254-0.143-0.601-0.137-0.91-0.193c0.011-0.112,0.025-0.225,0.033-0.333c2.107,0,4.213,0,6.453,0
				c-0.141,0.206-0.218,0.425-0.299,0.425c-1.4,0-1.554,0.863-1.541,1.998c0.046,3.11,0.057,6.225-0.001,9.327
				c-0.021,1.2,0.159,2.071,1.587,2.089c0.063,0,0.124,0.181,0.271,0.416c-2.206,0-4.311,0-6.409,0
				c-0.039-0.048-0.069-0.099-0.104-0.155c0.237-0.119,0.472-0.322,0.717-0.335c0.973-0.052,1.299-0.57,1.277-1.489
				c-0.035-1.577-0.009-3.162-0.009-4.804c-2.49,0-4.829,0-7.347,0c-0.04,0.445-0.101,0.931-0.123,1.408
				c-0.023,0.521-0.005,1.04-0.005,1.559C83.777,50.829,83.777,50.829,85.734,52.062z"/>
			<path fill="#FFFFFF" d="M79.344,18.873c0.132-0.31,0.15-0.378,0.165-0.378c2.935,0.047,5.9-0.159,8.785,0.23
				c2.542,0.334,3.395,3.784,1.604,5.669c-0.486,0.515-1.112,0.886-1.845,1.46c1.789,2.234,2.64,5.237,5.358,7.041
				c-1.205,0-2.413,0.049-3.607-0.036c-0.305-0.023-0.652-0.414-0.85-0.715c-1.107-1.703-2.224-3.409-3.237-5.164
				c-0.445-0.768-0.949-0.969-1.825-0.683c0,1.587-0.028,3.174,0.011,4.762c0.017,0.729,0.444,1.161,1.217,1.212
				c0.273,0.018,0.543,0.124,0.807,0.191c-0.011,0.098-0.024,0.198-0.042,0.306c-2.145,0-4.293,0-6.478,0
				c0.06-0.19,0.076-0.326,0.104-0.326c1.855-0.186,1.79-1.48,1.756-2.858c-0.055-2.556,0-5.11-0.023-7.66
				C81.23,20.549,81.7,18.868,79.344,18.873z M83.857,25.435c0.68-0.036,1.223-0.024,1.757-0.092
				c1.903-0.257,2.771-1.705,2.356-3.91c-0.296-1.579-1.932-2.678-3.496-2.287c-0.245,0.062-0.578,0.44-0.585,0.685
				C83.837,21.646,83.857,23.474,83.857,25.435z"/>
			<path fill="#FFFFFF" d="M135.995,32.447c2.556-0.079,1.973-1.803,1.987-3.187c0.02-2.751-0.037-5.5,0.021-8.248
				c0.024-1.199-0.156-2.074-1.603-2.065c-0.062,0-0.119-0.186-0.174-0.278c0.046-0.086,0.079-0.213,0.116-0.213
				c2.818,0.027,5.662-0.159,8.448,0.145c4.135,0.449,6.478,3.626,6.115,7.813c-0.316,3.739-3.567,6.581-7.424,6.514
				c-2.072-0.034-4.145-0.02-6.216-0.041c-0.332,0-0.665-0.042-0.997-0.064C136.18,32.699,136.09,32.571,135.995,32.447z
				 M140.616,25.28c0,1.673-0.011,3.349,0.007,5.021c0.015,1.45,0.404,1.829,1.849,1.891c2.324,0.096,4.446-1.146,5.031-3.421
				c0.428-1.641,0.549-3.478,0.308-5.155c-0.516-3.535-3.08-4.607-6.251-4.5c-0.662,0.023-0.983,0.277-0.961,1.028
				C140.652,21.85,140.616,23.566,140.616,25.28z"/>
			<path fill="#FFFFFF" d="M107.938,37.351c4.622,0.003,7.784,2.947,7.79,7.25c0.003,4.588-3.257,7.87-7.814,7.866
				c-4.542-0.005-7.671-3.084-7.66-7.526C100.266,40.587,103.55,37.349,107.938,37.351z M112.852,45.742
				c-0.002-2.431-0.404-4.316-1.72-5.895c-2.114-2.541-5.991-2.093-7.29,0.932c-1.289,3.018-0.988,6.023,0.738,8.808
				c1.024,1.655,2.641,2.236,4.55,1.902c1.825-0.315,2.851-1.52,3.299-3.217C112.679,47.308,112.765,46.31,112.852,45.742z"/>
			<path fill="#FFFFFF" d="M163.616,33.205c-4.476,0.014-7.655-3.04-7.688-7.36c-0.023-4.448,3.213-7.746,7.616-7.752
				c4.682-0.021,7.87,2.919,7.876,7.258C171.42,29.923,168.172,33.192,163.616,33.205z M168.58,26.439
				c-0.101-2.494-0.483-4.351-1.79-5.884c-1.924-2.271-5.415-2.084-6.98,0.351c-1.68,2.625-1.22,7.714,0.906,10.019
				c2.172,2.354,6.028,1.703,7.161-1.291C168.326,28.46,168.433,27.167,168.58,26.439z"/>
			<path fill="#FFFFFF" d="M115.31,18.377c1.296,0,2.591-0.05,3.877,0.032c0.314,0.021,0.643,0.423,0.894,0.713
				c2.455,2.778,4.892,5.568,7.336,8.354c0.312,0.357,0.634,0.7,1.225,1.351c0-0.946,0-1.555,0-2.157c0-1.8,0.01-3.591,0-5.385
				c-0.009-1.56-0.268-1.858-1.817-2.287c-0.15-0.048-0.268-0.213-0.619-0.509c2.023,0,3.775,0,5.62,0
				c-0.127,0.236-0.153,0.397-0.231,0.429c-1.766,0.694-1.952,0.907-1.957,2.84c-0.024,3.777-0.008,7.56-0.008,11.694
				c-0.569-0.432-1.023-0.673-1.347-1.034c-2.871-3.212-5.717-6.439-8.571-9.661c-0.343-0.384-0.689-0.757-1.321-1.076
				c0,0.36,0,0.721,0,1.082c0,2.352-0.004,4.708,0.002,7.063c0.004,1.856,0.124,1.995,1.943,2.492
				c0.122,0.032,0.212,0.188,0.509,0.458c-2.001,0-3.766,0-5.695,0c0.204-0.23,0.305-0.458,0.421-0.466
				c1.354-0.083,1.763-1.03,1.783-2.136c0.055-3.108,0.041-6.22,0.015-9.332c-0.007-0.884-0.525-1.473-1.363-1.768
				c-0.257-0.088-0.518-0.183-0.776-0.272C115.25,18.66,115.28,18.522,115.31,18.377z"/>
			<path fill="#FFFFFF" d="M126.072,38.158c-2.336-0.019-2.058,1.553-2.051,2.927c0.005,2.227-0.063,4.469,0.1,6.685
				c0.212,2.926,2.281,4.279,5.1,3.516c1.529-0.41,2.525-1.572,2.603-3.463c0.112-2.745,0.057-5.491,0.044-8.245
				c-0.004-0.763-0.34-1.299-1.221-1.315c-0.224-0.003-0.45-0.143-0.636-0.485c1.593,0,3.188,0,4.79,0
				c-0.012,0.145-0.012,0.28-0.029,0.287c-1.821,0.178-1.702,1.501-1.696,2.795c0.018,1.798-0.022,3.592,0.012,5.379
				c0.107,5.804-3.325,6.697-7.47,6.088c-2.918-0.426-4.157-2.015-4.207-5.014c-0.036-2.27-0.04-4.543,0-6.813
				c0.024-1.204-0.021-2.275-1.61-2.328c-0.04,0-0.084-0.119-0.113-0.188c-0.017-0.031-0.005-0.072-0.005-0.208
				c2.064,0,4.125,0,6.188,0C125.942,37.901,126.007,38.034,126.072,38.158z"/>
			<path fill="#FFFFFF" d="M152.871,52.062c0.111-0.238,0.159-0.421,0.202-0.425c1.7-0.035,1.656-1.202,1.644-2.414
				c-0.025-2.949-0.037-5.898,0.006-8.846c0.021-1.197-0.091-2.179-1.616-2.184c-0.059,0-0.119-0.184-0.274-0.429
				c3.481,0,6.854,0,10.325,0c0,0.981,0,2.036,0,3.083c-0.871-3.44-3.597-1.986-5.741-2.339c0,1.877,0,3.637,0,5.46
				c1.778,0.098,3.659,0.679,4.279-2.05c0.069,0.107,0.146,0.214,0.219,0.317c0,1.577,0,3.149,0,4.833
				c-0.603-0.739-1.011-1.656-1.676-1.924c-0.79-0.317-1.801-0.074-2.816-0.074c0,1.749-0.062,3.478,0.059,5.198
				c0.024,0.341,0.739,0.839,1.188,0.904c0.938,0.137,1.909,0.081,2.854,0.012c1.069-0.08,1.859-0.632,2.264-1.683
				c0.098-0.255,0.267-0.482,0.399-0.718c0.12,0.039,0.249,0.075,0.369,0.119c-0.218,1.069-0.438,2.14-0.644,3.157
				C160.194,52.062,156.577,52.062,152.871,52.062z"/>
			<path fill="#FFFFFF" d="M105.222,32.79c1.789-1.129,1.789-1.129,1.167-3.1c-0.61-1.917-0.61-1.917-3.272-1.917
				c-2.016,0-2.016,0-2.593,1.829c-0.664,2.099-0.664,2.099,1.158,3.121c-1.527,0-3.05,0-4.579,0
				c-0.091-0.094-0.174-0.191-0.265-0.288c0.188-0.061,0.367-0.122,0.553-0.156c0.949-0.176,1.375-0.838,1.663-1.683
				c1.157-3.394,2.444-6.745,3.45-10.179c0.42-1.436,1.203-2.11,2.64-2.536c0.563,1.578,1.142,3.171,1.699,4.765
				c0.898,2.591,1.724,5.219,2.709,7.775c0.331,0.859,1.058,1.569,1.615,2.364C109.399,32.79,107.466,32.79,105.222,32.79z
				 M103.517,21.04c-0.075,0.003-0.154,0.006-0.233,0.006c-0.583,1.794-1.165,3.584-1.779,5.482c1.326,0,2.478,0,3.788,0
				C104.672,24.61,104.098,22.825,103.517,21.04z"/>
			<path fill="#FFFFFF" d="M139.722,48.325c0.123,0.325,0.245,0.658,0.372,0.986c0.46,1.196,1.204,2.062,2.558,2.223
				c1.265,0.146,2.361-0.426,2.76-1.431c0.414-1.04,0.106-2.281-0.887-2.99c-0.904-0.644-1.916-1.136-2.866-1.71
				c-1.649-0.992-2.294-2.47-2.101-4.356c0.202-2.032,1.717-3.521,3.767-3.669c0.632-0.042,1.277-0.024,1.909,0.021
				c0.557,0.043,1.094,0.162,1.753,0.268c0.068,0.993,0.139,1.953,0.204,2.908c-0.112,0.038-0.236,0.074-0.355,0.112
				c-0.134-0.323-0.271-0.646-0.413-0.968c-0.442-0.98-1.112-1.656-2.269-1.639c-1.047,0.015-1.857,0.431-2.246,1.457
				c-0.425,1.117-0.302,2.172,0.648,2.93c0.717,0.563,1.547,0.978,2.354,1.405c2.57,1.371,3.507,3.263,2.754,5.646
				c-0.66,2.083-3.062,3.316-5.678,2.901c-2.218-0.354-2.857-1.337-2.57-3.98C139.519,48.401,139.617,48.363,139.722,48.325z"/>
		</g>
	</g>
	<g>
		<path fill="#FFFFFF" d="M71.205,42.188c0,1.32,0,2.633,0,3.914c0.391,0.114,0.838,0.132,1.114,0.358
			c0.26,0.216,0.343,0.649,0.503,0.986c-0.04,0.019-0.08,0.039-0.121,0.06c0.193,0.125,0.38,0.25,0.573,0.373
			c-0.012,0.048-0.027,0.095-0.038,0.144c-0.458,0.022-0.916,0.044-1.507,0.072c0.134-0.174,0.188-0.321,0.28-0.354
			c0.42-0.142,0.331-0.48,0.208-0.706c-0.11-0.199-0.383-0.409-0.599-0.424c-0.317-0.021-0.473,0.228-0.458,0.588
			c0.028,0.649,0.01,1.297,0.01,2.007c0.407,0,0.775,0,1.136,0c0.161,0.361,0.104,0.529-0.264,0.527
			c-0.995-0.003-1.989,0.011-2.98-0.019c-0.15-0.005-0.294-0.201-0.439-0.309c0.029-0.054,0.059-0.106,0.087-0.16
			c0.573,0,1.147,0,1.787,0c0.011-0.228,0.03-0.418,0.03-0.608c0.002-2.131,0.015-4.263-0.007-6.396
			c-0.005-0.492,0.076-0.821,0.75-0.749c-0.12-0.22-0.194-0.373-0.284-0.515c-0.783-1.234-1.588-2.458-2.347-3.708
			c-0.175-0.288-0.268-0.661-0.289-1.003c-0.043-0.703-0.014-1.408-0.014-2.114c0-0.91,0-0.91-1.047-1.145
			c0,0.496-0.043,0.977,0.005,1.449c0.171,1.672-0.158,3.213-1.079,4.63c-0.683,1.046-0.883,2.192-0.833,3.446
			c0.076,2.019,0.021,4.046,0.024,6.07c0,0.193,0.014,0.386,0.027,0.635c0.688,0,1.335,0.006,1.979-0.006
			c0.343-0.005,0.471,0.115,0.346,0.476c-6.177,0-12.353,0-18.585,0c0-0.393,0-0.778,0-1.194c-2.358,0-4.661,0-7,0
			c-0.02,0.398-0.037,0.77-0.058,1.213c-0.277,0-0.522,0-0.769,0c-8.727,0.001-17.454,0.004-26.183,0.001
			c-0.288-0.001-0.674,0.106-0.56-0.492c1.096,0,2.207,0,3.352,0c0-2.44,0-4.821,0-7.204c-0.699-0.241-0.729-0.329-0.265-0.948
			c1.483-1.979,2.963-3.964,4.459-5.933c0.255-0.336,0.391-0.667,0.359-1.087c-0.03-0.396-0.007-0.797-0.006-1.194
			c0-0.8,0-0.8,0.872-0.891c0-0.34,0.007-0.689-0.001-1.041c-0.009-0.36,0.146-0.549,0.513-0.527
			c0.521,0.032,1.083-0.045,1.548,0.135c0.639,0.246,0.121,0.954,0.41,1.477c0.341,0,0.733,0.008,1.123-0.003
			c0.323-0.008,0.462,0.143,0.459,0.457c-0.004,0.396,0,0.791,0,1.264c0.651,0,1.258,0.012,1.864-0.011
			c0.115-0.004,0.247-0.137,0.337-0.238c0.947-1.068,1.893-2.137,2.823-3.22c0.126-0.148,0.225-0.378,0.225-0.572
			c0.015-2.799,0.011-5.602,0.008-8.401c0-0.086-0.023-0.172-0.046-0.331c-0.312,0-0.616,0.025-0.914-0.01
			c-0.189-0.023-0.368-0.137-0.551-0.209c0.104-0.171,0.164-0.397,0.313-0.506c1.472-1.075,2.96-2.131,4.443-3.194
			c3.303-2.364,6.603-4.735,9.918-7.085c0.37-0.26,0.527-0.533,0.495-0.979c-0.037-0.482-0.011-0.969-0.011-1.483
			c0.23,0,0.399,0,0.643,0c0,0.593-0.019,1.167,0.009,1.74c0.008,0.196,0.072,0.445,0.205,0.57c2.343,2.202,4.699,4.388,7.055,6.575
			c0.035,0.033,0.091,0.045,0.224,0.111c0-0.364,0.028-0.68-0.007-0.99c-0.051-0.515,0.178-0.687,0.662-0.639
			c0.213,0.022,0.43,0.003,0.736,0.003c0-0.296,0.019-0.561-0.003-0.821c-0.037-0.436,0.17-0.58,0.575-0.563
			c0.464,0.019,0.975-0.106,1.265,0.394c0.152,0.264,0.292,0.559,0.336,0.854c0.058,0.371,0.006,0.757,0.017,1.136
			c0.005,0.139,0.005,0.34,0.088,0.4c0.446,0.325,0.367,0.786,0.367,1.229c0,0.813-0.024,1.627,0.016,2.439
			c0.009,0.237,0.136,0.521,0.302,0.691c0.568,0.58,1.193,1.104,1.765,1.682c0.159,0.161,0.206,0.433,0.308,0.655
			c-0.23,0.005-0.458,0.011-0.685,0.016c-0.038,0-0.072,0.002-0.147,0.006c0,3.833,0,7.669,0,11.55c1.451,0,2.902,0,4.456,0
			c0-0.571,0.013-1.161-0.005-1.748c-0.011-0.411,0.135-0.583,0.567-0.576c1.17,0.018,2.343-0.086,3.449,0.462
			c0.313,0.152,0.493,0.306,0.477,0.679c-0.025,0.523,0.044,1.055-0.016,1.572c-0.137,1.192,0.209,2.199,0.915,3.164
			c0.743,1.021,1.383,2.114,2.049,3.189c0.124,0.199,0.164,0.448,0.241,0.673c-0.23,0.064-0.46,0.134-0.692,0.193
			C71.416,42.171,71.326,42.173,71.205,42.188z M56.438,15.525c-0.426,0-0.849,0-1.32,0c0,0.925,0.083,1.776-0.021,2.607
			c-0.137,1.095,0.656,1.506,1.328,2.202c0-1.699,0-3.26,0-4.821c0.17,0,0.34,0,0.533,0c0-0.383,0.016-0.727-0.013-1.067
			c-0.008-0.104-0.142-0.197-0.217-0.294c-0.075,0.1-0.197,0.192-0.212,0.3C56.468,14.807,56.459,15.166,56.438,15.525z
			 M38.836,49.219c0-0.261,0-0.474,0-0.686c0-2.748,0-5.494,0-8.239c0-0.847,0.067-0.924,0.855-1.212
			c0.141-0.052,0.354-0.205,0.351-0.307c-0.009-0.368-0.063-0.744-0.164-1.101c-0.086-0.3-0.26-0.575-0.428-0.931
			c0.615,0,1.144,0,1.742,0c-0.189,0.392-0.336,0.679-0.468,0.974c-0.367,0.814-0.186,1.253,0.653,1.438
			c0.588,0.13,0.785,0.436,0.777,1.025c-0.022,2.439-0.009,4.88-0.008,7.318c0,0.207,0.02,0.416,0.029,0.619c1.072,0,2.074,0,3.13,0
			c0-1.357-0.004-2.672,0.001-3.989c0.002-0.613-0.018-1.231,0.049-1.841c0.108-0.957,0.718-1.52,1.678-1.609
			c0.762-0.073,1.512-0.072,2.139,0.705c0-0.526,0.014-0.887-0.001-1.244c-0.023-0.541,0.172-0.916,0.742-1.008
			c0.432-0.072,0.593-0.323,0.478-0.728c-0.153-0.543-0.337-1.077-0.528-1.665c0.525,0,1.052,0,1.666,0
			c-0.201,0.423-0.364,0.743-0.506,1.071c-0.319,0.745-0.131,1.141,0.626,1.344c0.787,0.21,0.862,0.303,0.862,1.122
			c0,2.782,0,5.565,0,8.347c0,0.144-0.019,0.296,0.021,0.43c0.021,0.074,0.142,0.164,0.217,0.161
			c0.075-0.002,0.193-0.091,0.214-0.166c0.036-0.136,0.019-0.284,0.019-0.429c0.001-1.609-0.003-3.218,0.005-4.824
			c0-0.18,0.064-0.356,0.099-0.534c0.071,0.009,0.141,0.022,0.209,0.03c0,1.968,0,3.936,0,5.896c0.294,0,0.497,0,0.739,0
			c0-1.742,0.021-3.438-0.018-5.134c-0.007-0.343-0.148-0.741-0.363-1.011c-0.335-0.423-0.466-0.844-0.463-1.382
			c0.019-5.964,0.011-11.926,0.014-17.889c0-0.228,0-0.453,0-0.68c-0.308-0.045-0.53-0.08-0.814-0.122c0-0.67,0-1.312,0-1.971
			c-6.378,0-12.691,0-19.059,0c0,0.232,0,0.428,0,0.622c0,2.693-0.007,5.385,0.005,8.077c0.002,0.404-0.099,0.713-0.375,1.019
			c-1.03,1.136-2.029,2.295-3.057,3.467c0.132,0.168,0.237,0.309,0.354,0.444c1.7,1.993,3.383,3.999,5.111,5.965
			c0.456,0.522,0.442,1.049,0.333,1.703c-1.911,0-3.796,0-5.68,0c0,2.349,0,4.63,0,6.912c0.219,0,0.395,0,0.636,0
			c0-0.216,0-0.411,0-0.604c0-1.606-0.003-3.218,0.004-4.825c0-0.173,0.072-0.344,0.112-0.517c0.073,0.014,0.148,0.024,0.221,0.035
			c0,1.97,0,3.938,0,5.902c0.286,0,0.477,0,0.755,0c0-1.998,0-3.959,0-5.922c0.072-0.002,0.143-0.002,0.215-0.002
			c0.119,0.954,0.037,1.924,0.052,2.885c0.016,1.005,0.004,2.012,0.004,3.043c0.257,0,0.444,0,0.682,0
			c0.053-1.992-0.033-3.963,0.047-5.923c0.086,0.003,0.174,0.003,0.262,0.003c0,1.967,0,3.929,0,5.921c0.292,0,0.483,0,0.793,0
			c0-1.985,0-3.958,0-5.929c0.08,0,0.162,0,0.243,0c0,1.977,0,3.954,0,5.967c0.314-0.018,0.501-0.028,0.728-0.039
			c0-0.273,0-0.487,0-0.703c0-1.573-0.004-3.145,0.004-4.716c0-0.175,0.065-0.348,0.1-0.521c0.07,0.013,0.141,0.025,0.209,0.034
			c0,1.972,0,3.94,0,5.903c0.277,0,0.468,0,0.758,0c0-1.993,0-3.956,0-5.917c0.086-0.003,0.174-0.003,0.261-0.003
			c0.002,0.964,0.005,1.931,0.006,2.897c0.001,1.004,0,2.008,0,3.026c0.273,0,0.461,0,0.676,0c0.083-1.992-0.052-3.964,0.071-5.927
			c0.085,0,0.167,0,0.252,0c0,1.977,0,3.955,0,5.929c0.294,0,0.469,0,0.718,0c0-1.013-0.008-2.002,0.001-2.988
			c0.01-0.982-0.045-1.968,0.038-2.942c0.089,0,0.178,0.002,0.267,0.002c0,1.977,0,3.952,0,5.941
			C38.418,49.219,38.576,49.219,38.836,49.219z M29.606,49.222c0.019-0.123,0.041-0.19,0.041-0.259
			c0.003-2.762,0.008-5.523-0.008-8.285c0-0.21-0.119-0.448-0.249-0.628c-1.119-1.55-2.27-3.079-3.371-4.643
			c-0.21-0.297-0.316-0.707-0.357-1.078c-0.059-0.53-0.017-1.07-0.017-1.596c-0.862-0.153-0.862-0.153-0.865-1.032
			c-0.001-0.192-0.001-0.385-0.001-0.563c-0.722-0.149-0.747-0.131-0.751,0.509c-0.001,0.163-0.011,0.327,0.001,0.487
			c0.027,0.396-0.14,0.571-0.543,0.531c-0.098-0.009-0.2,0.034-0.343,0.058c0,0.511-0.03,0.999,0.007,1.479
			c0.041,0.504-0.128,0.892-0.429,1.285c-1.285,1.677-2.55,3.366-3.799,5.066c-0.167,0.228-0.28,0.551-0.282,0.832
			c-0.022,2.419-0.012,4.839-0.009,7.258c0,0.19,0.024,0.379,0.038,0.578C22.342,49.222,25.95,49.222,29.606,49.222z M54.829,20.281
			c-2.788-3.399-5.505-6.71-8.25-10.053c-4.669,3.345-9.291,6.654-14.038,10.053C40.04,20.281,47.364,20.281,54.829,20.281z
			 M55.687,21.995c-0.182-0.022-0.287-0.042-0.392-0.045c-0.926-0.035-0.926-0.034-0.926,0.906c0,6.215,0,12.433-0.003,18.649
			c0,0.23-0.04,0.464-0.071,0.801c-0.281-0.407-0.363-19.837-0.15-20.67c0.48,0,0.977,0,1.525,0
			c-0.014-0.253-0.024-0.436-0.032-0.624c-0.953,0-1.845,0-2.745,0c0,0.581,0,1.116,0,1.682c0.606-0.079,0.643,0.257,0.64,0.719
			c-0.012,6.036,0,12.073-0.018,18.108c-0.001,0.558,0.122,0.998,0.486,1.43c0.198,0.232,0.32,0.603,0.327,0.913
			c0.032,1.59,0.016,3.181,0.019,4.771c0,0.192,0.017,0.384,0.028,0.603c0.248-0.011,0.435-0.02,0.722-0.034
			c0-2.009,0-3.969,0-5.927c0.071,0,0.145,0,0.217,0c0,1.977,0,3.952,0,5.926c0.308,0,0.498,0,0.792,0c0-1.993,0-3.955,0-5.915
			c0.095-0.002,0.191-0.002,0.287-0.002c0.016,1.966-0.002,3.936,0.011,5.915c0.254,0,0.439,0,0.72,0c0-1.997,0-3.961,0-5.924
			c0.084,0,0.169-0.002,0.254-0.002c0.067,1.976-0.013,3.96,0.045,5.968c0.268-0.014,0.455-0.024,0.672-0.036
			c0.062-2.007-0.03-3.97,0.049-5.919c0.082,0,0.158,0,0.237,0c0,1.967,0,3.934,0,5.911c0.3,0,0.502,0,0.806,0c0-2,0-3.962,0-5.922
			c0.088,0,0.179-0.002,0.269-0.002c0.007,1.972-0.002,3.946,0.005,5.926c0.256,0,0.443,0,0.671,0c0-0.229,0-0.427,0-0.622
			c0-1.591-0.003-3.178,0.004-4.769c0.002-0.182,0.065-0.364,0.1-0.544c0.068,0.009,0.137,0.02,0.204,0.027c0,1.968,0,3.936,0,5.903
			c0.297,0,0.501,0,0.806,0c0-2.001,0-3.96,0-5.914c0.072,0,0.145-0.003,0.219-0.003c0,1.976,0,3.952,0,5.923
			c0.308,0,0.493,0,0.72,0c0-0.541,0-1.043,0-1.547c0-0.485,0-0.976,0-1.463c0-0.506-0.021-1.012,0.007-1.517
			c0.023-0.465-0.125-0.957,0.102-1.394c0.064,0.003,0.128,0.005,0.192,0.011c0,1.965,0,3.931,0,5.92c0.288,0,0.481,0,0.772,0
			c0-1.989,0-3.953,0-5.917c0.086,0,0.176-0.003,0.263-0.003c0.078,1.964-0.011,3.933,0.044,5.917c0.245,0,0.43,0,0.652,0
			c0.095-1.989-0.062-3.963,0.084-5.923c0.076,0.003,0.149,0.003,0.222,0.003c0,1.967,0,3.934,0,5.872
			c0.46,0.171,0.559,0.002,0.556-0.349c-0.011-0.902-0.005-1.807-0.005-2.711c0-1.296,0-2.59,0-3.91
			c-0.419,0.214-8.461,0.3-9.393,0.112C55.687,35.559,55.687,28.805,55.687,21.995z M58.047,26.105c0-0.224,0-0.419,0-0.615
			c0-2.583,0-5.166-0.003-7.748c0-0.465,0.075-0.939-0.391-1.275c-0.097-0.07-0.104-0.294-0.11-0.45
			c-0.016-0.415,0.005-0.831-0.008-1.246c-0.005-0.155-0.067-0.31-0.101-0.464c-0.051,0.006-0.103,0.012-0.155,0.018
			c0,0.565,0,1.131,0,1.714c-0.205,0-0.341,0-0.529,0c0,1.782,0,3.545,0,5.355c-0.277-0.056-0.493-0.1-0.709-0.143
			c0,6.498,0,12.961,0,19.516c0.115-0.15,0.177-0.217,0.222-0.293c0.991-1.699,1.985-3.394,2.961-5.103
			c0.108-0.189,0.142-0.444,0.142-0.668c0.008-3.812,0.005-7.622,0.005-11.434c0-0.747-0.155-0.903-0.982-0.97
			c0,1.153,0,2.306,0,3.444c0.166,0.085,0.313,0.156,0.458,0.229c-0.016,0.043-0.029,0.086-0.045,0.13
			C58.582,26.105,58.359,26.105,58.047,26.105z M65.153,32.901c0,1.157,0.001,2.292,0,3.424c-0.001,0.638-0.171,0.732-0.96,0.426
			c0.272-0.113,0.454-0.189,0.631-0.267c0-0.402,0-0.795,0-1.185c-0.081-0.026-0.127-0.058-0.175-0.058
			c-1.553-0.004-3.107-0.018-4.658,0.011c-0.177,0.003-0.41,0.2-0.509,0.368c-0.8,1.331-1.574,2.675-2.356,4.017
			c-0.312,0.541-0.619,1.084-0.948,1.664c0.134,0.029,0.198,0.058,0.263,0.058c2.656,0.003,5.31,0.009,7.964-0.014
			c0.171-0.001,0.411-0.194,0.497-0.361c0.621-1.201,1.213-2.418,1.809-3.632c0.095-0.194,0.248-0.394,0.25-0.592
			c0.024-1.274,0.015-2.552,0.015-3.859C66.355,32.901,65.788,32.901,65.153,32.901z M35.16,40.999
			c-0.065-0.134-0.08-0.188-0.111-0.227c-1.741-2.047-3.478-4.096-5.234-6.133c-0.119-0.139-0.363-0.225-0.555-0.232
			c-0.595-0.031-1.193-0.038-1.788-0.003c-0.51,0.029-0.739-0.144-0.693-0.673c0.028-0.337,0.004-0.677,0.004-1.026
			c-0.307,0-0.544,0-0.819,0c0,0.658-0.012,1.269,0.007,1.88c0.004,0.15,0.076,0.316,0.167,0.44
			c1.379,1.897,2.763,3.787,4.159,5.673c0.104,0.139,0.307,0.285,0.466,0.287C32.204,41.009,33.645,40.999,35.16,40.999z
			 M51.859,46.724c0-0.629,0.019-1.238-0.015-1.845c-0.005-0.097-0.228-0.223-0.368-0.257c-0.225-0.056-0.468-0.046-0.703-0.064
			c-0.004-0.072-0.007-0.146-0.009-0.22c0.352-0.035,0.707-0.072,1.055-0.107c0-0.737,0-1.43,0-2.117
			c-0.506-0.042-0.966-0.079-1.427-0.115c0.005-0.082,0.01-0.162,0.019-0.242c0.467,0,0.935,0,1.448,0
			c0-0.592,0.014-1.094-0.01-1.595c-0.004-0.097-0.154-0.266-0.244-0.268c-0.694-0.024-1.39-0.011-2.081-0.011
			c0,3.149,0,6.206,0,9.273c0.794,0,1.542,0,2.337,0c0-0.542-0.021-1.049,0.008-1.548c0.024-0.397-0.096-0.568-0.514-0.528
			c-0.228,0.021-0.463-0.027-0.696-0.045c-0.003-0.072-0.007-0.143-0.009-0.215C51.035,46.789,51.415,46.759,51.859,46.724z
			 M39.198,39.911c0,3.124,0,6.173,0,9.239c0.771,0,1.515,0,2.258,0c0-0.702,0-1.358,0-2.03c-0.418-0.027-0.795-0.05-1.17-0.075
			c-0.001-0.078-0.005-0.152-0.007-0.231c0.39-0.028,0.781-0.055,1.223-0.085c0-0.445,0-0.856,0-1.269c0-0.804,0-0.804-0.776-0.854
			c-0.096-0.008-0.191-0.044-0.288-0.066c-0.007-0.064-0.014-0.126-0.021-0.188c0.349-0.04,0.699-0.083,1.04-0.121
			c0-0.73,0-1.423,0-2.113c-0.496-0.044-0.95-0.086-1.403-0.125c0.008-0.079,0.018-0.156,0.026-0.234c0.455,0,0.91,0,1.384,0
			c0-0.659,0-1.245,0-1.847C40.691,39.911,39.962,39.911,39.198,39.911z M46.251,48.118c1.028,0,1.956,0,2.911,0
			c0-1.934,0.025-3.827-0.012-5.718c-0.016-0.824-0.614-1.383-1.356-1.412c-0.81-0.032-1.376,0.396-1.447,1.277
			c-0.094,1.184-0.075,2.376-0.091,3.565C46.242,46.582,46.251,47.337,46.251,48.118z M46.084,41.388
			c-0.114,0.232-0.367,0.518-0.378,0.811c-0.062,1.911-0.075,3.824-0.089,5.734c-0.001,0.08,0.116,0.159,0.181,0.241
			c0.048-0.017,0.096-0.031,0.147-0.046c0-0.19,0-0.379,0-0.569c0-1.102-0.02-2.202,0.003-3.304
			C45.969,43.294,46.036,42.337,46.084,41.388z"/>
		<path fill="#FFFFFF" d="M73.556,52.177c-0.887,0.053-1.771,0.157-2.656,0.153c-3.271-0.013-6.54-0.077-9.807-0.092
			c-5.383-0.027-10.765-0.05-16.146-0.036c-7.73,0.02-15.46,0.074-23.191,0.102c-0.697,0.003-1.398-0.082-2.097-0.126
			c0.005-0.089,0.011-0.177,0.014-0.265c17.96-0.166,35.918-0.313,53.876,0C73.55,52,73.553,52.087,73.556,52.177z"/>
		<path fill="#FFFFFF" d="M15.089,50.78c0.17-0.046,0.34-0.129,0.509-0.132c2.4-0.045,4.801-0.099,7.202-0.112
			c5.976-0.034,11.953-0.064,17.93-0.069c1.566-0.001,3.132,0.093,4.699,0.142c0.004,0.061,0.01,0.118,0.014,0.177
			c-0.498,0.061-0.994,0.179-1.492,0.176c-3.176-0.015-6.353-0.09-9.53-0.082c-5.779,0.014-11.555,0.072-17.334,0.112
			c-0.644,0.006-1.289,0.003-1.935,0.003C15.131,50.922,15.111,50.851,15.089,50.78z"/>
		<path fill="#FFFFFF" d="M63.105,50.55c0.965,0,1.929-0.021,2.895,0.005c1.89,0.052,3.782,0.147,5.672,0.189
			c0.938,0.02,1.877-0.034,2.812-0.074c0.326-0.016,0.581,0.009,0.57,0.422C73.922,51.329,63.452,50.972,63.105,50.55z"/>
		<path fill="#FFFFFF" d="M48.028,50.783c4.123-0.267,8.249-0.094,12.396,0.117c-0.282,0.059-0.567,0.169-0.851,0.166
			c-3.811-0.025-7.621-0.064-11.432-0.102c-0.034,0-0.068-0.017-0.104-0.026C48.035,50.887,48.032,50.834,48.028,50.783z"/>
		<path fill="#FFFFFF" d="M17.674,46.91c-0.348,0.33-0.657,0.625-1.065,1.011c-0.616,0.074-0.616,0.074-1.325,1.025
			c-0.218-0.801-0.09-1.106,0.65-1.279c0.382-0.087,0.624-0.266,0.846-0.581C17.123,46.601,17.446,46.587,17.674,46.91z"/>
		<path fill="#FFFFFF" d="M74.902,49.471c-0.348-0.701-0.795-0.637-1.328-0.364c-0.139,0.069-0.422-0.104-0.621-0.202
			c-0.205-0.102-0.388-0.247-0.584-0.373c0.011-0.046,0.019-0.094,0.03-0.143c0.219,0.053,0.479,0.049,0.653,0.168
			c0.302,0.21,0.522,0.322,0.836,0c0.122-0.125,0.5-0.181,0.617-0.089c0.24,0.191,0.38,0.504,0.56,0.768
			C75.012,49.312,74.956,49.394,74.902,49.471z"/>
		<path fill="#FFFFFF" d="M16.575,48.962c0.086-0.243,0.104-0.503,0.208-0.543c0.234-0.094,0.513-0.077,0.773-0.103
			c0.008,0.049,0.017,0.096,0.023,0.145C17.296,48.604,17.012,48.744,16.575,48.962z"/>
		<path fill="#FFFFFF" d="M46.457,35.307c-0.913,0-1.772,0.011-2.63-0.018c-0.102-0.002-0.276-0.226-0.277-0.348
			c-0.019-1.403-0.019-2.809,0.004-4.215c0.002-0.12,0.21-0.337,0.332-0.342c0.754-0.032,1.512-0.027,2.267-0.003
			c0.104,0.003,0.291,0.174,0.291,0.271C46.462,32.18,46.457,33.708,46.457,35.307z M44.856,31.88c0-0.399,0-0.775,0-1.147
			c-0.35,0-0.646,0-0.939,0c0,0.407,0,0.77,0,1.147C44.235,31.88,44.502,31.88,44.856,31.88z M43.898,33.393c0.355,0,0.662,0,0.96,0
			c0-0.414,0-0.776,0-1.134c-0.344,0-0.638,0-0.96,0C43.898,32.646,43.898,32.996,43.898,33.393z M44.897,34.371
			c0.067-0.401-0.014-0.609-0.514-0.621c-0.581-0.011-0.496,0.321-0.522,0.683c-0.028,0.409,0.089,0.556,0.528,0.566
			C44.897,35.007,44.959,34.768,44.897,34.371z M45.26,34.948c0.296,0,0.57,0,0.843,0c0-0.403,0-0.769,0-1.14
			c-0.304,0-0.562,0-0.843,0C45.26,34.187,45.26,34.523,45.26,34.948z M45.278,30.714c0,0.406,0,0.771,0,1.149
			c0.297,0,0.554,0,0.833,0c0-0.398,0-0.763,0-1.149C45.827,30.714,45.582,30.714,45.278,30.714z M46.146,33.421
			c0-0.245,0.002-0.424,0-0.601c-0.005-0.189-0.018-0.381-0.027-0.556c-0.323,0-0.581,0-0.876,0c0,0.223,0,0.4,0,0.579
			c0,0.191,0,0.379,0,0.577C45.577,33.421,45.825,33.421,46.146,33.421z"/>
		<path fill="#FFFFFF" d="M39.171,24.478c0,0.471-0.011,0.941,0.003,1.41c0.008,0.313-0.093,0.463-0.433,0.454
			c-0.651-0.02-1.301-0.013-1.949-0.002c-0.297,0.004-0.418-0.113-0.415-0.418c0.013-0.975,0.009-1.949,0.001-2.925
			c-0.001-0.29,0.089-0.429,0.404-0.422c0.65,0.015,1.301,0.016,1.95-0.001c0.334-0.01,0.452,0.123,0.441,0.444
			C39.16,23.503,39.171,23.992,39.171,24.478z M37.621,24.271c0.156-1.372,0.027-1.548-0.87-1.268c0,0.425,0,0.844,0,1.268
			C37.063,24.271,37.329,24.271,37.621,24.271z M36.742,24.654c0,0.442,0,0.858,0,1.294c0.317,0,0.606,0,0.894,0
			c0-0.455,0-0.858,0-1.294C37.327,24.654,37.052,24.654,36.742,24.654z M38.004,26.058c0.319-0.077,0.75-0.094,0.771-0.199
			c0.084-0.393,0.033-0.813,0.033-1.2c-0.34,0-0.563,0-0.804,0C38.004,25.106,38.004,25.512,38.004,26.058z M38.767,24.273
			c0.188-1.497,0.062-1.483-0.749-1.286c0,0.418,0,0.839,0,1.286C38.276,24.273,38.503,24.273,38.767,24.273z"/>
		<path fill="#FFFFFF" d="M43.959,24.214c0.001-0.414,0.007-0.828-0.001-1.242c-0.007-0.26,0.071-0.402,0.365-0.397
			c0.667,0.012,1.335-0.018,1.999,0.02c0.139,0.009,0.375,0.228,0.38,0.358c0.035,0.845,0.015,1.691,0.023,2.539
			c0.004,0.311-0.149,0.403-0.435,0.399c-0.629-0.009-1.261-0.014-1.891,0.002c-0.322,0.008-0.459-0.102-0.442-0.434
			C43.975,25.042,43.959,24.628,43.959,24.214z M44.309,25.481c0.918,0.155,0.933,0.144,0.934-0.705c0-0.375,0-0.754,0-1.131
			c0-0.817-0.058-0.86-0.934-0.653C44.309,23.807,44.309,24.625,44.309,25.481z M46.336,25.515c0-0.904,0-1.74,0-2.727
			c-0.327,0.146-0.744,0.235-0.755,0.353c-0.058,0.783-0.03,1.571-0.03,2.375C45.859,25.515,46.085,25.515,46.336,25.515z"/>
		<path fill="#FFFFFF" d="M47.909,39.263c-0.893-0.141-1.763-0.269-2.628-0.422c-0.114-0.019-0.295-0.147-0.299-0.231
			c-0.024-0.709-0.012-1.419-0.012-2.257c0.706,0.3,1.294,0.543,1.877,0.798c1.244,0.537,1.243,0.538,1.133,1.884
			C47.977,39.086,47.951,39.134,47.909,39.263z M47.732,38.895c-0.079-0.441-0.028-0.943-0.209-1.05
			c-0.679-0.397-1.435-0.664-2.229-1.011c0,0.538-0.021,0.952,0.013,1.36c0.011,0.133,0.152,0.344,0.264,0.367
			C46.237,38.689,46.912,38.772,47.732,38.895z"/>
		<path fill="#FFFFFF" d="M34.252,34.771c0.132-0.035,0.182-0.06,0.234-0.063c1.255-0.092,1.255-0.09,1.255,1.165
			c0,0.396-0.018,0.793,0.005,1.188c0.022,0.361-0.085,0.517-0.48,0.509c-1.214-0.025-0.997,0.094-1.013-0.996
			C34.244,35.966,34.252,35.357,34.252,34.771z M34.594,35.044c0,0.751,0,1.443,0,2.156c0.278,0,0.52,0,0.778,0
			c0-0.736,0-1.442,0-2.156C35.104,35.044,34.874,35.044,34.594,35.044z"/>
		<path fill="#FFFFFF" d="M25.435,43.337c0,0.485-0.009,0.975,0.003,1.459c0.008,0.297-0.104,0.423-0.411,0.415
			c-0.595-0.014-1.191-0.012-1.785-0.001c-0.299,0.005-0.417-0.111-0.414-0.414c0.011-0.993,0.009-1.985,0-2.977
			c-0.003-0.276,0.105-0.388,0.383-0.381c0.613,0.011,1.229-0.019,1.839,0.02c0.134,0.009,0.354,0.228,0.367,0.366
			C25.461,42.322,25.433,42.83,25.435,43.337z M23.177,43.122c0.326,0,0.585,0,0.839,0c0-0.466,0-0.886,0-1.318
			c-0.301,0-0.558,0-0.839,0C23.177,42.263,23.177,42.685,23.177,43.122z M23.174,44.833c0.315,0,0.571,0,0.841,0
			c0-0.46,0-0.877,0-1.303c-0.303,0-0.559,0-0.841,0C23.174,43.974,23.174,44.378,23.174,44.833z M25.071,43.137
			c0-0.451,0-0.89,0-1.334c-0.241,0-0.445,0-0.68,0c0,0.459,0,0.882,0,1.334C24.631,43.137,24.837,43.137,25.071,43.137z
			 M24.434,43.521c-0.029,0.076-0.059,0.124-0.062,0.174c-0.008,0.197-0.012,0.396-0.012,0.593c0.003,0.632,0.016,0.641,0.716,0.52
			c0-0.417,0-0.837,0-1.286C24.841,43.521,24.635,43.521,24.434,43.521z"/>
		<path fill="#FFFFFF" d="M47.881,43.778c-0.313,0.014-0.54-0.011-0.54-0.418c0-0.409,0.228-0.409,0.522-0.409
			c0.293,0.003,0.529-0.003,0.526,0.409C48.387,43.763,48.157,43.792,47.881,43.778z"/>
		<path fill="#FFFFFF" d="M46.743,38.154c-0.072,0.129-0.14,0.246-0.206,0.364c-0.048-0.006-0.094-0.012-0.142-0.019
			c-0.021-0.312-0.035-0.624-0.064-1.094c0.404,0.426,0.998,0.543,0.672,1.312C46.896,38.485,46.825,38.328,46.743,38.154z"/>
		<path fill="#FFFFFF" d="M46.251,37.599c-0.167,0.261-0.297,0.467-0.52,0.818c-0.051-0.378-0.089-0.662-0.14-1.035
			C45.865,37.472,46.039,37.527,46.251,37.599z"/>
	</g>
</g>
</svg>
