<?xml version="1.0" encoding="utf-8"?>
<!-- Generator: Adobe Illustrator 16.0.0, SVG Export Plug-In . SVG Version: 6.00 Build 0)  -->
<!DOCTYPE svg PUBLIC "-//W3C//DTD SVG 1.1//EN" "http://www.w3.org/Graphics/SVG/1.1/DTD/svg11.dtd">
<svg version="1.1" id="Layer_1" xmlns="http://www.w3.org/2000/svg" xmlns:xlink="http://www.w3.org/1999/xlink" x="0px" y="0px"
	 width="210px" height="60px" viewBox="0 0 210 60" enable-background="new 0 0 210 60" xml:space="preserve">
<g id="CAWkyC.tif">
	<g>
		<path fill-rule="evenodd" clip-rule="evenodd" fill="#FFFFFF" d="M141.386,28.799c-0.533-0.263-1.019-0.464-1.475-0.734
			c-1.25-0.741-1.896-2.265-1.623-3.767c0.24-1.334,1.121-2.039,2.746-2.201c1.438-0.143,2.58,0.535,2.986,1.955
			c0.189,0.66,0.471,0.921,1.016,0.972c1.104,0.104,2.21,0.325,3.312,0.313c2.419-0.029,4.836-0.169,7.254-0.271
			c0.749-0.031,1.565-0.238,1.803,0.97c0.277,1.411-0.259,2.836-1.2,3.221c-0.123,0.05-0.25,0.147-0.37,0.138
			c-1.596-0.127-1.939,1.251-2.232,2.567c-0.633,2.85,0.23,5.833,2.007,7.04c1.458,0.991,2.993,0.948,4.505,0.189
			c0.232-0.116,0.469-0.692,0.423-1.002c-0.353-2.418,0.03-3.6,1.87-4.801c0.956-0.623,2.027-1.013,3.049-1.504
			c0.281-0.135,0.566-0.255,0.834-0.613c-0.489-0.145-0.998-0.231-1.465-0.442c-0.784-0.354-1.613-0.665-2.294-1.209
			c-1.195-0.958-1.301-2.617-0.079-3.477c1.507-1.061,3.162-2.022,4.865-2.49c2.393-0.658,4.883-0.896,7.344-1.146
			c0.582-0.059,1.275,0.448,1.808,0.876c0.522,0.42,0.765,1.08,0.452,1.895c-0.307,0.8-0.84,0.937-1.505,0.971
			c-1.037,0.053-2.086,0.087-3.101,0.309c-0.617,0.135-1.223,0.532-1.758,0.944c-0.973,0.749-0.936,1.721,0.104,2.366
			c0.562,0.35,1.251,0.423,1.834,0.741c0.39,0.213,0.954,0.617,0.974,0.97c0.027,0.484-0.291,1.141-0.64,1.469
			c-0.437,0.41-1.059,0.556-1.596,0.825c-1.607,0.804-2.206,1.803-1.988,3.296c0.261,1.781,1.536,3.201,3.122,3.146
			c1.882-0.064,3.759-0.395,5.641-0.562c1.614-0.145,3.233-0.307,4.849-0.292c0.748,0.008,1.489,0.439,1.53,1.551
			c0.034,0.908-0.571,1.572-1.596,1.802c-0.193,0.043-0.389,0.082-0.583,0.093c-3.553,0.195-7.102,0.456-10.655,0.556
			c-2.822,0.08-5.598-0.364-8.245-1.618c-0.274-0.13-0.71-0.054-0.987,0.113c-4.165,2.523-8.389,1.97-12.486,0.01
			c-3.783-1.808-4.583-6.713-1.91-10.42c0.433-0.601,0.95-1.121,1.491-1.752c-1.843-0.143-3.609-0.28-5.463-0.423
			c-0.362,1.245-0.706,2.611-1.156,3.93c-0.537,1.572-1.112,3.135-1.766,4.647c-2.163,5-5.073,5.992-9.449,5.423
			c-1.982-0.259-3.851-0.872-5.218-2.753c-0.194,0.139-0.371,0.239-0.522,0.377c-2.774,2.543-5.925,2.707-9.208,1.897
			c-1.706-0.421-2.932-1.585-3.62-3.63c-1.268,1.876-2.796,3.072-4.709,3.594c-2.232,0.609-4.411,0.452-6.533-0.539
			c-2.16-1.01-3.266-2.924-3.222-5.625c0.052-3.243,0.107-6.487,0.27-9.724c0.03-0.593,0.457-1.41,0.902-1.682
			c2.014-1.231,4.114-1.324,6.2-0.145c0.688,0.388,1.031,1.008,0.929,1.918c-0.234,2.09-0.487,4.179-0.685,6.273
			c-0.095,1.009-0.138,2.032-0.106,3.046c0.052,1.729,0.873,2.576,2.394,2.583c2.51,0.011,3.824-1.452,3.876-4.345
			c0.043-2.413,0.024-4.829,0.123-7.239c0.022-0.568,0.277-1.333,0.651-1.636c1.716-1.39,3.637-1.825,5.664-1.039
			c1.197,0.464,1.453,1.05,1.301,2.492c-0.289,2.729-0.652,5.45-0.854,8.188c-0.252,3.419,1.538,4.947,4.422,3.897
			c0.187-0.067,0.366-0.158,0.552-0.229c0.98-0.373,1.405-1.033,1.337-2.336c-0.154-2.972-0.15-5.956-0.2-8.934
			c-0.026-1.616,0.354-2.289,1.674-2.768c1.652-0.599,3.334-0.742,5.008-0.089c1.286,0.502,1.639,1.174,1.539,2.702
			c-0.177,2.705-0.345,5.41-0.488,8.116c-0.033,0.636-0.006,1.289,0.084,1.917c0.308,2.133,2.077,3.04,3.616,1.796
			c0.597-0.482,1.12-1.168,1.518-1.88C139.774,34.898,140.572,31.879,141.386,28.799z"/>
		<path fill-rule="evenodd" clip-rule="evenodd" fill="#FFFFFF" d="M34.196,26.006c-1.333-0.47-2.414-0.768-3.441-1.228
			c-2.775-1.242-3.527-3.57-2.071-6.578c1.59-3.287,4.181-5.23,7.126-6.574c3.152-1.438,6.473-1.721,9.822-1.602
			c1.252,0.045,2.299,1.332,2.344,2.707c0.042,1.271-0.458,1.909-1.516,2.241c-1.537,0.48-3.089,0.954-4.554,1.652
			c-1.374,0.655-2.381,1.843-2.616,3.672c-0.178,1.381,0.184,2.267,1.324,2.794c0.903,0.418,1.871,0.644,2.8,0.992
			c0.593,0.221,1.167,0.468,1.259,1.368c0.095,0.94-0.433,1.278-0.989,1.736c-1.509,1.241-3.021,2.493-4.421,3.889
			c-0.981,0.98-1.54,2.317-1.543,3.895c-0.006,2.11,1.001,3.406,2.832,3.543c3.637,0.271,6.995-0.674,9.71-3.565
			c1.812-1.93,3.395-4.145,5.08-6.232c-0.065-0.071-0.13-0.142-0.194-0.212c-0.012-0.068-0.01-0.145-0.036-0.204
			c-1.22-2.676-0.573-4.177,2.014-4.726c1.81-0.384,3.583-0.197,5.312,0.464c1.155,0.442,1.33,0.911,0.831,2.211
			c-0.292,0.762-0.161,1.283,0.376,1.768c0.694,0.628,1.365,1.29,2.059,1.919c1.874,1.703,2.884,3.786,2.148,6.586
			c1.059,0.484,2.073,0.866,3.023,1.404c1.067,0.604,1.431,2.417,0.831,3.594c-0.333,0.65-0.792,0.591-1.259,0.314
			c-0.813-0.48-1.587-1.048-2.411-1.5c-0.783-0.43-1.481-0.483-2.34,0.168c-2.082,1.579-4.505,2.215-6.945,2.491
			c-1.835,0.207-3.704,0.093-5.553,0.009c-0.556-0.025-1.131-0.36-1.644-0.672c-1.499-0.913-1.659-2.575-0.368-3.837
			c1.353-1.321,3.027-1.714,4.715-1.987c0.903-0.146,1.822-0.23,2.732-0.228c0.608,0.002,0.815-0.351,0.907-0.915
			c0.172-1.057,0.059-2.041-0.679-2.799c-0.655-0.672-1.334-1.313-1.697-1.667c-1.928,2.021-3.708,4.004-5.593,5.843
			c-5.7,5.557-12.254,7.816-19.666,6.506c-0.858-0.151-1.714-0.495-2.509-0.908c-4.055-2.105-5.039-7.773-2.043-11.583
			c1.463-1.863,3.354-2.963,5.295-3.978C33.083,26.55,33.525,26.339,34.196,26.006z M58.196,39.32
			c-2.117-0.582-4.171-0.053-4.723,1.219C54.738,41.536,57.172,40.908,58.196,39.32z"/>
		<path fill-rule="evenodd" clip-rule="evenodd" fill="#FFFFFF" d="M95.694,50c-2.739,0-5.441,0-8.275,0
			c0.296-5.355,0.394-5.67,0.693-11.084c-0.071-0.048-0.143-0.097-0.215-0.145c-0.213,0.22-0.461,0.408-0.632,0.665
			c-3.496,5.253-9.805,4.591-13.125,1.666c-2.156-1.899-2.529-4.683-2.109-7.569c0.757-5.199,4.13-8.687,9.003-9.226
			c1.796-0.2,3.645-0.075,5.445,0.155c1.33,0.17,1.929,1.443,1.601,2.78c-0.368,1.504-1.285,2.104-2.603,1.704
			c-3.803-1.155-6.959,2.479-6.018,6.928c0.461,2.184,2.077,3.254,4.266,2.827c2.547-0.496,4.36-2.871,4.48-5.866
			c0.056-1.393,0.101-2.786,0.177-4.177c0.021-0.368,0.078-0.762,0.218-1.085c0.62-1.42,1.807-1.628,2.995-1.707
			c1.333-0.088,2.639,0.056,3.504,1.468c0.137,0.224,0.172,0.568,0.175,0.857c0.109,8.787,0.41,12.475,0.507,21.261
			C95.783,49.559,95.749,49.668,95.694,50z"/>
		<path fill-rule="evenodd" clip-rule="evenodd" fill="#FFFFFF" d="M133.765,17.228c0.016,1.738-0.752,2.92-2.052,3.651
			c-1.832,1.031-3.635,0.881-5.239-0.572c-2-1.813-1.645-5.027,0.688-6.394c1.605-0.941,3.281-0.885,4.916-0.083
			C133.352,14.454,133.759,15.725,133.765,17.228z"/>
	</g>
</g>
</svg>
