<?xml version="1.0" encoding="utf-8"?>
<!-- Generator: Adobe Illustrator 16.0.0, SVG Export Plug-In . SVG Version: 6.00 Build 0)  -->
<!DOCTYPE svg PUBLIC "-//W3C//DTD SVG 1.1//EN" "http://www.w3.org/Graphics/SVG/1.1/DTD/svg11.dtd">
<svg version="1.1" id="Layer_1" xmlns="http://www.w3.org/2000/svg" xmlns:xlink="http://www.w3.org/1999/xlink" x="0px" y="0px"
	 width="210px" height="60px" viewBox="0 0 210 60" enable-background="new 0 0 210 60" xml:space="preserve">
<g>
	<g>
		<path fill-rule="evenodd" clip-rule="evenodd" fill="#FFFFFF" d="M94.398,9.788c-1.104,0.633-1.921,1.513-2.432,2.794
			c1.639-0.729,3.202-1.424,4.806-2.137c0.009,0.128,0.021,0.217,0.021,0.306c0.001,2.06-0.001,4.12,0.007,6.18
			c0.001,0.237-0.071,0.358-0.291,0.465c-1.198,0.584-2.385,1.189-3.621,1.809c0.757,0.836,1.646,1.405,2.713,1.622
			c1.051,0.213,2.08,0.052,3.051-0.426c0.217-0.107,0.313-0.24,0.31-0.501c-0.016-1.241-0.012-2.481-0.001-3.722
			c0.002-0.228-0.066-0.375-0.25-0.515c-0.43-0.326-0.84-0.677-1.303-1.054c0.415-0.337,0.803-0.669,1.209-0.978
			c0.238-0.18,0.356-0.373,0.347-0.691c-0.025-0.89-0.009-1.78-0.009-2.647c-1.28-0.318-2.532-0.627-3.784-0.939
			c-1.011-0.252-2.015-0.538-3.035-0.75c-0.948-0.197-1.72,0.463-1.618,1.361c0.031,0.276,0.213,0.535,0.315,0.775
			c-0.78-0.203-1.378-1.046-1.402-2.032c-0.037-1.527,1.027-2.776,2.624-3.112c0.872-0.184,1.696,0.02,2.516,0.257
			c1.289,0.374,2.566,0.787,3.861,1.139c0.367,0.1,0.782,0.088,1.166,0.047c0.406-0.043,0.664-0.331,0.736-0.737
			c0.056-0.316-0.226-0.757-0.602-0.903c-0.332-0.129-0.688-0.194-1.006-0.28c0.625-0.326,1.948,0.083,2.566,0.593
			c0.705,0.582,0.936,1.562,0.603,2.642c-0.342,1.107-1.294,1.777-2.712,1.884c-0.007,0.097-0.021,0.2-0.022,0.302
			c-0.002,0.819,0.013,1.639-0.01,2.458c-0.008,0.291,0.101,0.462,0.32,0.627c0.404,0.303,0.787,0.633,1.218,0.983
			c-0.446,0.362-0.884,0.706-1.307,1.066c-0.098,0.084-0.21,0.224-0.212,0.339c-0.016,1.216-0.01,2.433-0.011,3.65
			c0,0.119,0,0.239,0,0.454c1.177-0.814,1.994-1.825,2.56-3.054c0.04,0.008,0.079,0.017,0.118,0.026
			c-0.07,0.559-0.088,1.13-0.219,1.675c-0.822,3.406-3.731,4.918-6.448,4.735c-3.49-0.234-5.828-2.801-6.266-5.883
			c-0.543-3.818,2.019-6.789,4.989-7.798c0.145-0.049,0.3-0.068,0.451-0.102C94.363,9.739,94.381,9.764,94.398,9.788z
			 M93.789,11.998c-0.65,0.293-1.231,0.544-1.799,0.822c-0.107,0.052-0.199,0.202-0.236,0.325c-0.427,1.406-0.458,2.808,0.088,4.192
			c0.236,0.598,0.495,1.188,0.931,1.674c0.244-0.118,0.453-0.244,0.678-0.321c0.294-0.1,0.348-0.292,0.344-0.576
			c-0.015-1.034-0.005-2.067-0.005-3.101C93.789,14.031,93.789,13.048,93.789,11.998z"/>
		<path fill-rule="evenodd" clip-rule="evenodd" fill="#FFFFFF" d="M106.306,13.863c0.962-0.825,1.834-1.573,2.722-2.334
			c0.719,0.797,1.417,1.573,2.122,2.354c0.354-0.17,0.604-0.521,0.975-0.654c0.027,0.043,0.055,0.085,0.083,0.128
			c-0.246,0.195-0.481,0.406-0.742,0.579c-0.178,0.117-0.213,0.255-0.213,0.449c-0.002,2.083-0.001,4.167-0.024,6.25
			c-0.011,0.935-0.038,1.87-0.465,2.745c-0.664,1.361-1.787,2.07-3.234,2.295c-0.475,0.074-0.971,0.012-1.55,0.012
			c0.101-0.087,0.125-0.125,0.158-0.135c1.55-0.478,2.232-1.635,2.285-3.147c0.084-2.394,0.065-4.791,0.086-7.187
			c0.001-0.089-0.02-0.197-0.071-0.264c-0.404-0.522-0.818-1.036-1.243-1.569c-0.268,0.229-0.522,0.43-0.753,0.654
			c-0.073,0.071-0.116,0.208-0.116,0.316c-0.007,1.927-0.008,3.854,0.002,5.781c0,0.126,0.076,0.269,0.156,0.374
			c0.159,0.208,0.346,0.396,0.522,0.595c0.299-0.216,0.542-0.392,0.82-0.594c-0.018,0.266-2.363,2.229-3.032,2.598
			c-0.625-0.577-1.258-1.162-1.908-1.762c-0.244,0.159-0.49,0.319-0.736,0.479c-0.026-0.032-0.052-0.063-0.078-0.095
			c0.052-0.063,0.095-0.138,0.157-0.187c0.276-0.213,0.542-0.445,0.84-0.62c0.362-0.212,0.469-0.481,0.466-0.904
			c-0.021-3.396-0.017-6.793-0.007-10.19c0.001-0.547-0.045-1.04-0.684-1.276c1.16-0.896,2.276-1.758,3.461-2.673
			C106.306,8.57,106.306,11.164,106.306,13.863z"/>
		<path fill-rule="evenodd" clip-rule="evenodd" fill="#FFFFFF" d="M120.611,15.474c-0.875,0.644-1.726,1.269-2.575,1.894
			c-0.513,0.377-1.026,0.754-1.538,1.133c-0.306,0.226-0.362,0.771-0.087,1.032c0.651,0.621,1.315,1.229,2.005,1.87
			c0.463-0.362,0.903-0.73,1.368-1.064c0.433-0.312,0.795-0.74,1.304-0.938c0.026,0.037,0.053,0.075,0.079,0.112
			c-1.582,1.254-3.164,2.507-4.765,3.776c-0.907-0.819-1.809-1.632-2.728-2.462c-0.298,0.231-0.585,0.456-0.959,0.747
			c0.021-0.164,0.021-0.23,0.04-0.29c0.009-0.029,0.051-0.052,0.082-0.067c0.682-0.339,0.77-0.909,0.749-1.612
			c-0.049-1.647-0.019-3.298-0.009-4.947c0-0.118,0.061-0.293,0.149-0.345c1.514-0.879,3.035-1.743,4.557-2.61
			c0.029-0.017,0.064-0.021,0.132-0.042C119.139,12.916,119.861,14.171,120.611,15.474z M118.438,16.81
			c-0.713-1.211-1.406-2.391-2.1-3.571c-0.021,0.008-0.041,0.016-0.062,0.024c0,1.684,0,3.368,0,5.126
			C117.02,17.846,117.713,17.34,118.438,16.81z"/>
	</g>
	<g>
		<g>
			<path fill-rule="evenodd" clip-rule="evenodd" fill="#FFFFFF" d="M72.318,34.852c0-1.729,0.009-3.42-0.009-5.11
				c-0.003-0.28-0.096-0.572-0.201-0.837c-0.175-0.438-0.505-0.714-0.992-0.764c-0.516-0.053-0.882,0.196-1.139,0.611
				c-0.152,0.247-0.257,0.523-0.422,0.868c-0.041-0.965,0.305-1.687,0.859-2.336c1.171-1.373,3.197-1.64,4.652-0.593
				c0.901,0.647,1.171,1.6,1.173,2.645c0.008,5.456,0.004,10.911,0.004,16.365c0,0.183,0,0.364,0,0.562
				c0.697,0.14,1.376,0.276,2.16,0.434c0-6.841,0-13.679,0-20.516c0.062-0.001,0.124-0.002,0.185-0.003c0,0.875,0,1.75,0,2.625
				c0.043,0.022,0.086,0.045,0.129,0.068c1.199-0.959,2.397-1.919,3.625-2.902c0.886,0.783,1.772,1.566,2.671,2.36
				c0.53-0.21,0.807-0.851,1.384-0.982c0.027,0.043,0.055,0.085,0.082,0.128c-0.306,0.271-0.593,0.57-0.925,0.806
				c-0.299,0.211-0.38,0.459-0.379,0.809c0.01,4.784,0.013,9.568,0.001,14.352c-0.001,0.65-0.037,1.311-0.148,1.949
				c-0.231,1.326-0.976,1.999-2.293,2.232c-1.244,0.222-2.416-0.1-3.584-0.43c-1.689-0.477-3.395-0.835-5.161-0.757
				c-0.733,0.032-1.458,0.152-2.005,0.726c-0.408,0.428-0.583,0.93-0.385,1.5c0.186,0.538,0.557,0.963,1.147,0.97
				c0.875,0.011,1.76-0.02,2.625-0.144c1.876-0.269,3.738-0.637,5.614-0.908c1.271-0.184,2.454,0.08,3.428,0.991
				c1.265,1.185,1.139,3.411-0.254,4.52c-0.614,0.488-1.45,0.853-2.096,0.913c-0.036-0.035-0.071-0.07-0.107-0.106
				c0.128-0.076,0.304-0.123,0.374-0.235c0.196-0.315,0.436-0.642,0.498-0.992c0.144-0.816-0.289-1.354-1.108-1.276
				c-1.265,0.12-2.524,0.339-3.774,0.575c-1.537,0.291-3.057,0.644-4.641,0.599c-2.447-0.068-4.223-2.5-3.45-4.78
				c0.363-1.07,1.188-1.7,2.162-2.163c0.219-0.104,0.313-0.206,0.312-0.464c-0.012-2.499-0.015-4.998,0.001-7.497
				c0.002-0.37-0.134-0.5-0.472-0.488c-0.45,0.016-0.895,0.071-1.186,0.463c-0.328,0.442-0.212,0.812,0.424,1.39
				c-0.724,0.016-1.227-0.305-1.595-0.834c-1.138-1.637-0.195-3.731,1.875-4.183C71.67,34.943,71.97,34.908,72.318,34.852z
				 M78.643,46.731c1.322,0.455,2.612-0.52,2.619-1.955c0.009-1.902,0.002-3.805,0.002-5.707c0-0.797-0.278-1.137-1.062-1.303
				c-0.793-0.168-1.561,0.434-1.561,1.222c0,1.872,0,3.744,0,5.616C78.643,45.317,78.643,46.031,78.643,46.731z M79.501,28.604
				c-0.224,0.173-0.447,0.312-0.625,0.495c-0.112,0.115-0.221,0.295-0.223,0.446c-0.015,1.763-0.012,3.527-0.001,5.29
				c0.001,0.151,0.055,0.376,0.16,0.438c0.358,0.209,0.736,0.455,1.133,0.514c0.739,0.108,1.32-0.481,1.319-1.224
				c0-1.11-0.045-2.223,0.016-3.328c0.042-0.762-0.121-1.342-0.792-1.77C80.135,29.238,79.846,28.91,79.501,28.604z M81.23,37.882
				c0-0.776,0-1.489,0-2.266c-0.873,0.674-1.71,0.617-2.557,0.008c0,0.799,0,1.528,0,2.315
				C79.521,37.274,80.348,37.271,81.23,37.882z"/>
			<path fill-rule="evenodd" clip-rule="evenodd" fill="#FFFFFF" d="M22.866,30.517c0,4.015,0,7.909,0,11.769
				c0.671,0.257,1.36,0.449,1.976,0.777c0.621,0.33,1.17,0.796,1.776,1.22c0.216-0.234,0.469-0.519,0.734-0.79
				c0.06-0.062,0.162-0.08,0.245-0.119c-0.018,0.1,0,0.23-0.058,0.295c-0.655,0.74-1.321,1.472-1.986,2.203
				c-0.47,0.517-0.942,1.031-1.423,1.558c-0.292-0.253-0.537-0.535-0.843-0.709c-0.403-0.228-0.841-0.429-1.289-0.534
				c-0.786-0.184-1.576,0.298-1.862,1.051c-0.261,0.688,0.02,1.437,0.747,1.853c0.36,0.206,0.767,0.329,1.148,0.488
				c-2.247,0.396-3.938-1.234-4.104-2.837c-0.203-1.95,0.934-3.61,2.826-4.137c0.58-0.161,1.19-0.211,1.828-0.318
				c0-0.986,0-1.99,0-2.993c0-0.594-0.012-1.188,0.005-1.782c0.007-0.252-0.104-0.42-0.324-0.38
				c-0.422,0.078-0.869,0.158-1.234,0.363c-0.351,0.197-0.371,0.612-0.2,0.978c0.093,0.199,0.251,0.369,0.378,0.549
				c-1.302-0.029-2.078-1.281-2.156-2.486c-0.059-0.905,0.246-1.776,1.086-2.214c0.734-0.383,1.574-0.561,2.443-0.855
				c0-1.01,0.021-2.15-0.009-3.29c-0.014-0.537-0.918-1.469-1.454-1.567c-0.459-0.084-0.856,0.034-1.092,0.463
				c-0.173,0.314-0.305,0.651-0.478,1.027c-0.026-0.133-0.064-0.239-0.067-0.347c-0.031-1.015,0.018-2.013,0.665-2.871
				c1.396-1.853,3.923-1.783,5.273,0.217c0.753,1.116,1.354,2.337,2.007,3.52c1.652,2.992,3.295,5.989,4.943,8.983
				c0.041,0.075,0.094,0.144,0.203,0.309c0-1.221,0-2.329,0-3.438c0-1.965-0.006-3.93,0.008-5.895
				c0.002-0.309-0.071-0.421-0.399-0.436c-1.051-0.048-1.906-0.559-2.69-1.25c-0.341,0.38-0.672,0.749-1.003,1.118
				c-0.039-0.012-0.077-0.023-0.115-0.034c0.024-0.108,0.013-0.247,0.076-0.32c1.128-1.297,2.266-2.585,3.401-3.876
				c1.839,1.703,3.842,1.305,4.292-0.597c0.569,0.651,0.406,2.182-0.294,3.301c-0.692,1.106-1.76,1.517-3.015,1.724
				c0,0.9,0,1.795,0,2.688c0,4.662,0.003,9.323-0.006,13.984c0,0.196-0.069,0.518-0.189,0.563c-0.301,0.113-0.51-0.085-0.67-0.377
				c-2.974-5.431-5.957-10.856-8.938-16.283C23.002,30.73,22.968,30.68,22.866,30.517z"/>
			<path fill-rule="evenodd" clip-rule="evenodd" fill="#FFFFFF" d="M47.271,44.941c-0.446,0.316-0.874,0.619-1.3,0.922
				c-0.046-0.062-0.091-0.124-0.137-0.186c0.236-0.181,0.455-0.394,0.712-0.535c0.497-0.274,0.641-0.653,0.629-1.223
				c-0.04-1.98-0.022-3.962-0.01-5.942c0.007-1.042-0.348-1.885-1.194-2.527c-1.282-0.976-1.517-2.17-1.113-3.384
				c0.424-1.275,1.898-2.295,3.179-2.27c-0.176,0.192-0.343,0.352-0.483,0.533c-0.519,0.671-0.508,1.36,0.086,1.971
				c0.336,0.345,0.748,0.617,1.133,0.912c0.326,0.25,0.678,0.468,0.99,0.732c0.549,0.467,0.824,1.055,0.818,1.801
				c-0.019,2.407-0.002,4.814-0.011,7.222c-0.001,0.299,0.073,0.498,0.325,0.685c0.6,0.442,1.169,0.926,1.757,1.397
				c0.405-0.17,0.583-0.42,0.577-0.896c-0.028-2.468-0.021-4.937-0.004-7.405c0.002-0.367-0.086-0.636-0.369-0.869
				c-0.267-0.22-0.502-0.479-0.777-0.746c0.994-0.879,1.96-1.733,2.954-2.612c0.895,0.791,1.78,1.572,2.692,2.378
				c-0.158,0.188-0.277,0.391-0.45,0.524c-0.513,0.395-0.599,0.904-0.588,1.522c0.035,2.025,0.019,4.053,0.007,6.079
				c-0.002,0.301,0.08,0.5,0.324,0.691c0.73,0.572,1.435,1.177,2.148,1.768c0.369-0.082,0.46-0.306,0.458-0.658
				c-0.013-2.697-0.012-5.394,0-8.091c0.001-0.32-0.094-0.539-0.331-0.746c-0.271-0.237-0.503-0.52-0.774-0.805
				c0.951-0.87,1.915-1.753,2.915-2.67c0.911,0.748,1.821,1.496,2.715,2.23c0.467-0.236,0.719-0.719,1.169-0.889
				c0.038,0.052,0.076,0.104,0.113,0.155c-0.467,0.419-0.895,0.896-1.41,1.244c-0.823,0.557-1.113,1.239-1.063,2.248
				c0.093,1.87,0.032,3.747,0.018,5.622c-0.001,0.164-0.088,0.4-0.214,0.479c-1.98,1.244-3.974,2.468-5.965,3.694
				c-0.05,0.031-0.107,0.05-0.175,0.08c-1.064-0.84-2.125-1.677-3.208-2.53c-0.964,0.765-1.922,1.511-2.862,2.279
				c-0.241,0.197-0.391,0.229-0.647,0.007C49.056,46.397,48.178,45.691,47.271,44.941z"/>
			<path fill-rule="evenodd" clip-rule="evenodd" fill="#FFFFFF" d="M91.625,47.294c-1.151-0.969-2.326-1.959-3.494-2.942
				c-0.454,0.098-0.608,0.699-1.179,0.587c0.23-0.206,0.448-0.428,0.693-0.613c0.241-0.184,0.318-0.398,0.316-0.7
				c-0.012-2.499,0-4.998-0.015-7.497c-0.002-0.331,0.087-0.495,0.392-0.651c1.837-0.941,3.659-1.912,5.548-2.906
				c1.198,1.039,2.459,2.132,3.756,3.257c0.353-0.312,0.708-0.624,1.064-0.938c0.039,0.025,0.078,0.05,0.117,0.075
				c-0.053,0.104-0.079,0.256-0.164,0.307c-0.771,0.464-0.855,1.163-0.835,1.988c0.049,2.056,0.022,4.114,0.006,6.171
				c-0.001,0.176-0.095,0.437-0.229,0.513C95.639,45.063,93.66,46.159,91.625,47.294z M91.422,34.321
				c0,2.826-0.003,5.519,0.01,8.212c0,0.139,0.113,0.307,0.222,0.411c0.473,0.451,0.963,0.884,1.448,1.322
				c0.413,0.371,0.828,0.74,1.247,1.115c0.044-0.068,0.073-0.091,0.073-0.114c0.004-2.647,0.009-5.295,0.004-7.943
				c0-0.108-0.048-0.248-0.125-0.32C93.377,36.132,92.443,35.27,91.422,34.321z"/>
			<path fill-rule="evenodd" clip-rule="evenodd" fill="#FFFFFF" d="M112.794,47.29c-0.846-0.793-1.666-1.562-2.504-2.347
				c-0.352,0.297-0.691,0.583-1.03,0.87c-0.04-0.034-0.079-0.068-0.119-0.103c0.077-0.117,0.134-0.256,0.234-0.347
				c0.406-0.368,0.838-0.707,1.231-1.087c0.124-0.119,0.224-0.331,0.225-0.501c0.012-4.51,0.013-9.019,0.001-13.528
				c-0.001-0.357-0.077-0.724-0.176-1.07c-0.131-0.46-0.417-0.804-1.037-0.921c1.565-1.1,3.056-2.148,4.604-3.237
				c0.015,0.195,0.032,0.325,0.032,0.454c0.001,5.712,0.006,11.423-0.008,17.135c-0.001,0.516,0.065,0.947,0.5,1.286
				c0.248,0.194,0.443,0.458,0.687,0.715c0.315-0.259,0.625-0.511,0.934-0.764c0.036,0.024,0.073,0.049,0.109,0.073
				c-0.042,0.096-0.059,0.221-0.131,0.284C115.182,45.224,114.009,46.237,112.794,47.29z"/>
			<path fill-rule="evenodd" clip-rule="evenodd" fill="#FFFFFF" d="M41.803,44.91c1.153-0.843,2.281-1.668,3.412-2.49
				c0.001-0.001,0.034,0.043,0.101,0.128c-2,1.586-4,3.171-6.023,4.774c-1.157-1.045-2.291-2.07-3.447-3.116
				c-0.378,0.294-0.743,0.578-1.208,0.939c0.022-0.189,0.018-0.276,0.046-0.349c0.02-0.051,0.08-0.095,0.133-0.121
				c0.818-0.406,0.908-1.093,0.885-1.93c-0.055-2.084-0.012-4.171-0.022-6.256c-0.001-0.294,0.083-0.449,0.354-0.601
				c1.815-1.014,3.616-2.055,5.421-3.087c0.115-0.065,0.231-0.131,0.377-0.214c0.935,1.628,1.854,3.228,2.786,4.849
				c-1.664,1.222-3.288,2.45-4.954,3.615c-0.46,0.322-0.603,0.673-0.531,1.174c0.014,0.097,0.048,0.214,0.114,0.277
				C40.094,43.311,40.949,44.108,41.803,44.91z M39.153,34.5c0,2.264,0,4.405,0,6.613c0.932-0.685,1.816-1.333,2.713-1.992
				C40.965,37.587,40.088,36.094,39.153,34.5z"/>
			<path fill-rule="evenodd" clip-rule="evenodd" fill="#FFFFFF" d="M106.314,44.865c0.446-0.312,0.86-0.6,1.278-0.883
				c0.006-0.004,0.058,0.061,0.119,0.125c-1.265,1.056-2.521,2.105-3.802,3.175c-0.962-0.873-1.906-1.729-2.882-2.615
				c-0.28,0.267-0.546,0.533-0.828,0.781c-0.069,0.061-0.192,0.06-0.291,0.086c0.03-0.097,0.03-0.226,0.094-0.286
				c0.365-0.346,0.761-0.658,1.112-1.017c0.14-0.144,0.268-0.374,0.269-0.566c0.019-2.179,0.019-4.357,0.002-6.536
				c-0.001-0.223-0.103-0.471-0.229-0.659c-0.284-0.426-0.613-0.822-0.953-1.27c-0.361,0.312-0.69,0.596-1.021,0.88
				c-0.04-0.019-0.079-0.036-0.119-0.055c0.038-0.096,0.049-0.221,0.117-0.282c1.149-1.043,2.305-2.078,3.504-3.154
				c0.672,0.808,1.339,1.607,1.99,2.39c0.783-0.761,1.552-1.508,2.317-2.25c1.233,0.853,1.528,0.85,2.859-0.009
				c0.19,1.288-0.502,2.82-1.585,3.441c-1.278,0.732-2.319,0.229-3.304-0.749c-0.017,0.215-0.037,0.358-0.037,0.502
				c0,2.422,0.009,4.845-0.003,7.268c-0.002,0.336,0.089,0.572,0.352,0.779C105.63,44.243,105.962,44.557,106.314,44.865z"/>
			<path fill-rule="evenodd" clip-rule="evenodd" fill="#FFFFFF" d="M122.595,32.459c-0.394,2.862-2.376,5.121-5.689,2.897
				c-0.165,0.158-0.305,0.283-0.122,0.558c1.886,2.833,3.76,5.674,5.638,8.511c0.016,0.023,0.043,0.038,0.09,0.077
				c0.374-0.321,0.753-0.646,1.131-0.97c0.042,0.025,0.085,0.051,0.127,0.076c-0.064,0.112-0.105,0.25-0.197,0.331
				c-1.026,0.905-2.061,1.801-3.092,2.699c-0.218,0.189-0.434,0.381-0.684,0.601c-0.088-0.124-0.178-0.237-0.254-0.358
				c-1.646-2.626-3.284-5.255-4.94-7.873c-0.21-0.332-0.19-0.551,0.038-0.875c1.242-1.763,2.452-3.549,3.675-5.326
				c0.084-0.123,0.175-0.241,0.264-0.361C120.157,33.717,121.069,33.646,122.595,32.459z"/>
		</g>
		<g>
			<g>
				<path fill-rule="evenodd" clip-rule="evenodd" fill="#FFFFFF" d="M133.35,30.96c-0.882,0.681-1.736,1.336-2.319,2.273
					c-0.246,0.396-0.455,0.815-0.681,1.224c0.025,0.032,0.051,0.064,0.077,0.097c1.98-0.881,3.961-1.762,6.002-2.669
					c0,0.255,0,0.435,0,0.615c0,2.529-0.006,5.059,0.008,7.587c0.001,0.319-0.101,0.478-0.389,0.617
					c-1.38,0.668-2.747,1.364-4.118,2.051c-0.119,0.061-0.237,0.126-0.442,0.234c0.299,0.275,0.544,0.531,0.82,0.749
					c1.993,1.569,4.147,1.797,6.452,0.762c0.298-0.134,0.416-0.312,0.411-0.657c-0.022-1.554-0.021-3.107-0.001-4.661
					c0.005-0.326-0.095-0.535-0.345-0.728c-0.539-0.415-1.061-0.854-1.614-1.304c0.595-0.48,1.156-0.922,1.702-1.382
					c0.113-0.096,0.237-0.261,0.239-0.395c0.019-1.233,0.011-2.466,0.011-3.688c-1.328-0.324-2.634-0.639-3.936-0.963
					c-1.543-0.386-3.076-0.814-4.628-1.16c-1.074-0.24-1.897,0.321-2.098,1.306c-0.11,0.547,0.1,0.979,0.483,1.355
					c-0.026,0.033-0.052,0.067-0.078,0.102c-0.283-0.175-0.604-0.308-0.841-0.531c-1.036-0.975-1.097-2.187-0.718-3.452
					c0.566-1.893,2.886-3.009,4.692-2.608c1.622,0.359,3.204,0.897,4.808,1.343c0.729,0.203,1.462,0.406,2.204,0.548
					c0.329,0.063,0.698,0.019,1.03-0.057c0.425-0.098,0.727-0.387,0.81-0.835c0.089-0.476-0.118-0.875-0.516-1.078
					c-0.472-0.241-1.001-0.37-1.533-0.557c1.296-0.235,2.463,0.071,3.416,0.936c0.982,0.892,1.009,2.07,0.618,3.25
					c-0.536,1.62-1.839,2.192-3.456,2.366c0,1.021,0.048,2.056-0.018,3.083c-0.041,0.641,0.168,1.047,0.682,1.39
					c0.441,0.294,0.833,0.661,1.29,1.031c-0.562,0.454-1.098,0.896-1.646,1.322c-0.222,0.172-0.32,0.356-0.316,0.651
					c0.017,1.523,0.008,3.047,0.009,4.57c0,0.116,0.012,0.232,0.019,0.349c0.04,0.031,0.08,0.063,0.121,0.095
					c0.599-0.589,1.25-1.135,1.782-1.778c0.527-0.636,0.936-1.37,1.446-2.138c-0.026,0.465-0.016,0.886-0.078,1.296
					c-0.359,2.345-1.369,4.318-3.432,5.604c-5.319,3.318-11.783-0.13-12.772-5.813c-0.838-4.816,2.253-8.839,6.271-10.219
					C132.963,31.028,133.159,31.003,133.35,30.96z M132.664,33.852c-0.756,0.337-1.452,0.626-2.125,0.961
					c-0.188,0.094-0.384,0.297-0.45,0.493c-0.789,2.324-0.481,4.539,0.724,6.65c0.464,0.813,0.468,0.812,1.281,0.408
					c0.108-0.054,0.24-0.082,0.322-0.162c0.104-0.1,0.237-0.24,0.238-0.364C132.668,39.207,132.664,36.576,132.664,33.852z"/>
				<path fill-rule="evenodd" clip-rule="evenodd" fill="#FFFFFF" d="M159.521,33.526c0.825,0.891,1.641,1.771,2.496,2.695
					c1.183-0.934,2.355-1.86,3.548-2.802c0.836,0.932,1.647,1.837,2.464,2.747c0.525-0.203,0.841-0.765,1.4-0.878
					c0.028,0.042,0.056,0.084,0.083,0.125c-0.361,0.284-0.732,0.557-1.078,0.859c-0.106,0.094-0.203,0.268-0.203,0.404
					c-0.013,2.301-0.011,4.602-0.001,6.901c0,0.134,0.072,0.291,0.161,0.396c0.363,0.428,0.745,0.84,1.127,1.265
					c0.413-0.12,0.561-0.677,1.019-0.685c0.026,0.038,0.053,0.075,0.079,0.113c-1.208,1.119-2.417,2.239-3.667,3.396
					c-0.932-1.011-1.835-1.99-2.786-3.022c0.776-0.382,0.696-1.064,0.69-1.741c-0.016-1.645,0.005-3.291-0.018-4.936
					c-0.003-0.228-0.12-0.494-0.269-0.672c-0.516-0.617-1.069-1.203-1.61-1.804c-0.528,0.251-0.778,0.583-0.764,1.202
					c0.056,2.298,0.042,4.598,0.074,6.896c0.003,0.2,0.118,0.426,0.244,0.592c0.199,0.264,0.452,0.488,0.665,0.711
					c-0.892,0.883-1.764,1.745-2.674,2.646c-0.771-0.864-1.594-1.786-2.468-2.765c0.866-0.424,0.772-1.17,0.766-1.906
					c-0.017-1.614,0.001-3.229-0.01-4.845c-0.001-0.186-0.033-0.414-0.143-0.549c-0.544-0.673-1.119-1.322-1.677-1.972
					c-0.553,0.229-0.729,0.601-0.719,1.18c0.035,2.178,0.026,4.357,0.007,6.535c-0.004,0.446,0.089,0.789,0.442,1.077
					c0.244,0.198,0.439,0.458,0.638,0.671c-0.874,0.906-1.736,1.8-2.64,2.735c-0.896-1.014-1.769-2-2.636-2.98
					c0.021-0.033,0.025-0.051,0.037-0.058c0.746-0.44,0.805-1.128,0.783-1.912c-0.046-1.645-0.008-3.29-0.021-4.936
					c-0.002-0.195-0.059-0.432-0.178-0.576c-0.462-0.562-0.96-1.096-1.473-1.67c-0.381,0.316-0.751,0.624-1.121,0.932
					c-0.03-0.011-0.062-0.021-0.093-0.031c0.023-0.097,0.014-0.23,0.075-0.285c1.153-1.014,2.314-2.019,3.501-3.048
					c0.834,0.88,1.659,1.751,2.521,2.659C157.236,35.306,158.368,34.425,159.521,33.526z"/>
				<path fill-rule="evenodd" clip-rule="evenodd" fill="#FFFFFF" d="M188.177,33.338c0.658,0.683,1.418,1.311,2.543,0.886
					c0.652-0.247,0.901-0.773,0.933-1.555c0.333,0.63,0.328,1.189,0.206,1.741c-0.264,1.188-0.947,2.156-1.688,3.089
					c-0.113,0.143-0.229,0.283-0.366,0.453c0.683,0.553,1.359,1.084,2.013,1.644c0.138,0.117,0.26,0.339,0.263,0.514
					c0.021,1.447,0.018,2.895,0.003,4.342c-0.002,0.149-0.09,0.364-0.207,0.438c-1.692,1.046-3.396,2.072-5.11,3.11
					c-0.286-0.231-0.604-0.536-0.968-0.772c-0.49-0.318-1.025-0.457-1.587-0.143c-0.615,0.345-0.728,0.971-0.239,1.477
					c0.207,0.213,0.472,0.37,0.694,0.646c-0.345-0.114-0.717-0.18-1.031-0.352c-1.376-0.752-1.881-2.483-1.051-3.854
					c0.459-0.758,1.095-1.41,1.668-2.096c0.184-0.22,0.423-0.395,0.674-0.624c-0.656-0.604-1.279-1.154-1.87-1.737
					c-0.153-0.15-0.286-0.401-0.292-0.609c-0.028-1.035-0.019-2.071-0.001-3.107c0.003-0.152,0.082-0.374,0.197-0.442
					C184.681,35.362,186.415,34.361,188.177,33.338z M187.481,40.123c-1.528,1.628-3.339,2.921-4.488,4.843
					c0.87-0.938,1.876-1.498,3.197-1.231c1.289,0.261,2.061,1.159,2.707,2.363c0-1.601,0.003-3.062-0.007-4.522
					c0-0.12-0.053-0.276-0.137-0.354C188.363,40.862,187.953,40.526,187.481,40.123z M190.793,36.126
					c-0.771,0.616-1.597,1.011-2.604,0.734c-0.958-0.263-1.608-0.944-2.224-1.81c0,1.266-0.003,2.407,0.004,3.548
					c0.001,0.112,0.027,0.261,0.101,0.329c0.389,0.357,0.795,0.695,1.208,1.05C188.639,38.839,189.869,37.635,190.793,36.126z"/>
				<path fill-rule="evenodd" clip-rule="evenodd" fill="#FFFFFF" d="M178.149,33.396c0.937,1.624,1.854,3.216,2.798,4.853
					c-0.783,0.575-1.562,1.148-2.341,1.721c-0.956,0.701-1.915,1.4-2.869,2.104c-0.385,0.283-0.415,1.014-0.065,1.342
					c0.818,0.771,1.636,1.541,2.483,2.339c1.124-0.874,2.229-1.733,3.334-2.593c0.037,0.035,0.075,0.069,0.112,0.104
					c-0.038,0.075-0.059,0.173-0.119,0.221c-1.867,1.487-3.739,2.969-5.606,4.457c-0.212,0.169-0.35,0.129-0.541-0.048
					c-1.038-0.96-2.091-1.904-3.157-2.87c-0.394,0.293-0.776,0.578-1.159,0.863c-0.042-0.057-0.083-0.113-0.125-0.17
					c0.268-0.227,0.52-0.476,0.808-0.671c0.248-0.168,0.313-0.364,0.312-0.649c-0.01-2.331,0.003-4.662-0.015-6.993
					c-0.003-0.388,0.131-0.578,0.471-0.766c1.649-0.908,3.278-1.854,4.914-2.787C177.633,33.71,177.876,33.56,178.149,33.396z
					 M178.197,39.936c-0.902-1.529-1.784-3.024-2.707-4.589c0,2.232,0,4.374,0,6.572C176.423,41.235,177.303,40.591,178.197,39.936z
					"/>
				<path fill-rule="evenodd" clip-rule="evenodd" fill="#FFFFFF" d="M145.304,45.296c-0.407,0.32-0.776,0.61-1.146,0.9
					c-0.045-0.056-0.09-0.112-0.135-0.169c0.263-0.232,0.549-0.443,0.778-0.705c0.144-0.163,0.283-0.4,0.285-0.605
					c0.02-2.238,0.016-4.477,0.006-6.714c-0.001-0.168-0.047-0.371-0.147-0.498c-0.424-0.536-0.877-1.049-1.345-1.602
					c-0.317,0.268-0.624,0.527-0.932,0.787c-0.04-0.02-0.08-0.039-0.12-0.06c0.051-0.102,0.078-0.23,0.156-0.301
					c1.056-0.939,2.119-1.87,3.237-2.854c0.849,0.982,1.686,1.95,2.546,2.944c0.399-0.335,0.768-0.645,1.17-0.982
					c0.033,0.106,0.094,0.195,0.072,0.255c-0.028,0.077-0.11,0.15-0.188,0.192c-0.906,0.493-1.005,1.287-0.973,2.229
					c0.062,1.84,0.011,3.684,0.028,5.525c0.002,0.202,0.099,0.438,0.226,0.599c0.365,0.466,0.769,0.901,1.171,1.364
					c0.417-0.207,0.656-0.715,1.129-0.811c0.029,0.047,0.059,0.093,0.087,0.139c-1.164,1.039-2.329,2.079-3.509,3.133
					C146.896,47.135,146.111,46.229,145.304,45.296z"/>
			</g>
			<path fill-rule="evenodd" clip-rule="evenodd" fill="#FFFFFF" d="M143.473,30.343c0.898-0.824,1.748-1.603,2.646-2.427
				c0.718,0.79,1.429,1.571,2.169,2.386c-0.889,0.808-1.771,1.608-2.668,2.423C144.896,31.922,144.205,31.155,143.473,30.343z"/>
		</g>
	</g>
</g>
</svg>
